<svg viewBox="0 0 19 19" fill="none" xmlns="http://www.w3.org/2000/svg"><path fill-rule="evenodd" clip-rule="evenodd" d="M2.10039 8.00039C2.10039 4.74191 4.74191 2.10039 8.00039 2.10039C11.2589 2.10039 13.9004 4.74191 13.9004 8.00039C13.9004 11.2589 11.2589 13.9004 8.00039 13.9004C4.74191 13.9004 2.10039 11.2589 2.10039 8.00039ZM8.00039 0.900391C4.07917 0.900391 0.900391 4.07917 0.900391 8.00039C0.900391 11.9216 4.07917 15.1004 8.00039 15.1004C9.67283 15.1004 11.2102 14.5221 12.4235 13.5547C12.4272 13.5585 12.431 13.5623 12.4348 13.5661L17.4348 18.5661C17.7472 18.8785 18.2537 18.8785 18.5661 18.5661C18.8785 18.2537 18.8785 17.7472 18.5661 17.4348L13.5661 12.4348C13.5623 12.431 13.5585 12.4272 13.5547 12.4235C14.5221 11.2102 15.1004 9.67283 15.1004 8.00039C15.1004 4.07917 11.9216 0.900391 8.00039 0.900391Z" fill="currentColor"></path></svg>