<svg width="40" height="40" viewBox="0 0 40 40" fill="none" xmlns="http://www.w3.org/2000/svg"><g opacity="0.75"><g opacity="0.75"><circle cx="17.5" cy="21.5" r="14.5" fill="white"></circle><path d="M14.6019 23.5334H12.1265C12.0125 23.5321 11.8994 23.5535 11.7938 23.5965C11.6882 23.6396 11.5922 23.7032 11.5116 23.7839C11.431 23.8645 11.3673 23.9604 11.3243 24.066C11.2813 24.1716 11.2598 24.2848 11.2612 24.3988V26.8742C11.2598 26.9882 11.2813 27.1013 11.3243 27.2069C11.3673 27.3125 11.431 27.4084 11.5116 27.4891C11.5922 27.5697 11.6882 27.6334 11.7938 27.6764C11.8994 27.7194 12.0125 27.7409 12.1265 27.7395H14.6019C14.7159 27.7409 14.829 27.7194 14.9346 27.6764C15.0402 27.6334 15.1362 27.5697 15.2168 27.4891C15.2974 27.4084 15.3611 27.3125 15.4041 27.2069C15.4471 27.1013 15.4686 26.9882 15.4673 26.8742V24.3988C15.4686 24.2848 15.4471 24.1716 15.4041 24.066C15.3611 23.9604 15.2974 23.8645 15.2168 23.7839C15.1362 23.7032 15.0402 23.6396 14.9346 23.5965C14.829 23.5535 14.7159 23.5321 14.6019 23.5334ZM14.5113 26.3509C14.5113 26.4657 14.4657 26.5757 14.3846 26.6569C14.3035 26.738 14.1934 26.7836 14.0786 26.7836H12.6498C12.535 26.7836 12.425 26.738 12.3438 26.6569C12.2627 26.5757 12.2171 26.4657 12.2171 26.3509V24.922C12.2171 24.8073 12.2627 24.6972 12.3438 24.6161C12.425 24.5349 12.535 24.4894 12.6498 24.4894H14.0686C14.1825 24.4919 14.2911 24.5383 14.3717 24.6189C14.4523 24.6995 14.4987 24.8081 14.5013 24.922L14.5113 26.3509ZM22.8732 15.2822H20.3979C20.2838 15.2809 20.1707 15.3023 20.0651 15.3453C19.9595 15.3883 19.8636 15.452 19.7829 15.5327C19.7023 15.6133 19.6386 15.7092 19.5956 15.8148C19.5526 15.9204 19.5311 16.0336 19.5325 16.1476V18.6229C19.5311 18.737 19.5526 18.8501 19.5956 18.9557C19.6386 19.0613 19.7023 19.1572 19.7829 19.2379C19.8636 19.3185 19.9595 19.3822 20.0651 19.4252C20.1707 19.4682 20.2838 19.4897 20.3979 19.4883H22.8732C22.9872 19.4897 23.1004 19.4682 23.206 19.4252C23.3116 19.3822 23.4075 19.3185 23.4881 19.2379C23.5688 19.1572 23.6325 19.0613 23.6755 18.9557C23.7185 18.8501 23.74 18.737 23.7386 18.6229V16.1275C23.74 16.0134 23.7185 15.9003 23.6755 15.7947C23.6325 15.6891 23.5688 15.5932 23.4881 15.5125C23.4075 15.4319 23.3116 15.3682 23.206 15.3252C23.1004 15.2822 22.9872 15.2607 22.8732 15.2621V15.2822ZM22.7827 18.0695C22.7827 18.1843 22.7371 18.2943 22.6559 18.3755C22.5748 18.4566 22.4647 18.5022 22.35 18.5022H20.9211C20.8072 18.4996 20.6986 18.4532 20.618 18.3726C20.5374 18.292 20.491 18.1835 20.4884 18.0695V16.6507C20.4884 16.5359 20.534 16.4259 20.6152 16.3447C20.6963 16.2636 20.8064 16.218 20.9211 16.218H22.35C22.4647 16.218 22.5748 16.2636 22.6559 16.3447C22.7371 16.4259 22.7827 16.5359 22.7827 16.6507V18.0695ZM22.8732 15.252H20.3979C20.2838 15.2507 20.1707 15.2721 20.0651 15.3151C19.9595 15.3582 19.8636 15.4218 19.7829 15.5025C19.7023 15.5831 19.6386 15.679 19.5956 15.7846C19.5526 15.8902 19.5311 16.0034 19.5325 16.1174V18.5928C19.5311 18.7068 19.5526 18.8199 19.5956 18.9255C19.6386 19.0311 19.7023 19.127 19.7829 19.2077C19.8636 19.2883 19.9595 19.352 20.0651 19.395C20.1707 19.438 20.2838 19.4595 20.3979 19.4581H22.8732C22.9872 19.4595 23.1004 19.438 23.206 19.395C23.3116 19.352 23.4075 19.2883 23.4881 19.2077C23.5688 19.127 23.6325 19.0311 23.6755 18.9255C23.7185 18.8199 23.74 18.7068 23.7386 18.5928V16.1275C23.74 16.0134 23.7185 15.9003 23.6755 15.7947C23.6325 15.6891 23.5688 15.5932 23.4881 15.5125C23.4075 15.4319 23.3116 15.3682 23.206 15.3252C23.1004 15.2822 22.9872 15.2607 22.8732 15.2621V15.252ZM22.7827 18.0695C22.7827 18.1843 22.7371 18.2943 22.6559 18.3755C22.5748 18.4566 22.4647 18.5022 22.35 18.5022H20.9211C20.8072 18.4996 20.6986 18.4532 20.618 18.3726C20.5374 18.292 20.491 18.1835 20.4884 18.0695V16.6507C20.4884 16.5359 20.534 16.4259 20.6152 16.3447C20.6963 16.2636 20.8064 16.218 20.9211 16.218H22.35C22.4647 16.218 22.5748 16.2636 22.6559 16.3447C22.7371 16.4259 22.7827 16.5359 22.7827 16.6507V18.0695ZM22.8732 15.252H20.3979C20.2838 15.2507 20.1707 15.2721 20.0651 15.3151C19.9595 15.3582 19.8636 15.4218 19.7829 15.5025C19.7023 15.5831 19.6386 15.679 19.5956 15.7846C19.5526 15.8902 19.5311 16.0034 19.5325 16.1174V18.5928C19.5311 18.7068 19.5526 18.8199 19.5956 18.9255C19.6386 19.0311 19.7023 19.127 19.7829 19.2077C19.8636 19.2883 19.9595 19.352 20.0651 19.395C20.1707 19.438 20.2838 19.4595 20.3979 19.4581H22.8732C22.9872 19.4595 23.1004 19.438 23.206 19.395C23.3116 19.352 23.4075 19.2883 23.4881 19.2077C23.5688 19.127 23.6325 19.0311 23.6755 18.9255C23.7185 18.8199 23.74 18.7068 23.7386 18.5928V16.1275C23.74 16.0134 23.7185 15.9003 23.6755 15.7947C23.6325 15.6891 23.5688 15.5932 23.4881 15.5125C23.4075 15.4319 23.3116 15.3682 23.206 15.3252C23.1004 15.2822 22.9872 15.2607 22.8732 15.2621V15.252ZM22.7827 18.0695C22.7827 18.1843 22.7371 18.2943 22.6559 18.3755C22.5748 18.4566 22.4647 18.5022 22.35 18.5022H20.9211C20.8072 18.4996 20.6986 18.4532 20.618 18.3726C20.5374 18.292 20.491 18.1835 20.4884 18.0695V16.6507C20.4884 16.5359 20.534 16.4259 20.6152 16.3447C20.6963 16.2636 20.8064 16.218 20.9211 16.218H22.35C22.4647 16.218 22.5748 16.2636 22.6559 16.3447C22.7371 16.4259 22.7827 16.5359 22.7827 16.6507V18.0695ZM22.8732 15.252H20.3979C20.2838 15.2507 20.1707 15.2721 20.0651 15.3151C19.9595 15.3582 19.8636 15.4218 19.7829 15.5025C19.7023 15.5831 19.6386 15.679 19.5956 15.7846C19.5526 15.8902 19.5311 16.0034 19.5325 16.1174V18.5928C19.5311 18.7068 19.5526 18.8199 19.5956 18.9255C19.6386 19.0311 19.7023 19.127 19.7829 19.2077C19.8636 19.2883 19.9595 19.352 20.0651 19.395C20.1707 19.438 20.2838 19.4595 20.3979 19.4581H22.8732C22.9872 19.4595 23.1004 19.438 23.206 19.395C23.3116 19.352 23.4075 19.2883 23.4881 19.2077C23.5688 19.127 23.6325 19.0311 23.6755 18.9255C23.7185 18.8199 23.74 18.7068 23.7386 18.5928V16.1275C23.74 16.0134 23.7185 15.9003 23.6755 15.7947C23.6325 15.6891 23.5688 15.5932 23.4881 15.5125C23.4075 15.4319 23.3116 15.3682 23.206 15.3252C23.1004 15.2822 22.9872 15.2607 22.8732 15.2621V15.252ZM22.7827 18.0695C22.7827 18.1843 22.7371 18.2943 22.6559 18.3755C22.5748 18.4566 22.4647 18.5022 22.35 18.5022H20.9211C20.8072 18.4996 20.6986 18.4532 20.618 18.3726C20.5374 18.292 20.491 18.1835 20.4884 18.0695V16.6507C20.4884 16.5359 20.534 16.4259 20.6152 16.3447C20.6963 16.2636 20.8064 16.218 20.9211 16.218H22.35C22.4647 16.218 22.5748 16.2636 22.6559 16.3447C22.7371 16.4259 22.7827 16.5359 22.7827 16.6507V18.0695ZM14.6019 15.252H12.1265C12.0125 15.2507 11.8994 15.2721 11.7938 15.3151C11.6882 15.3582 11.5922 15.4218 11.5116 15.5025C11.431 15.5831 11.3673 15.679 11.3243 15.7846C11.2813 15.8902 11.2598 16.0034 11.2612 16.1174V18.5928C11.2598 18.7068 11.2813 18.8199 11.3243 18.9255C11.3673 19.0311 11.431 19.127 11.5116 19.2077C11.5922 19.2883 11.6882 19.352 11.7938 19.395C11.8994 19.438 12.0125 19.4595 12.1265 19.4581H14.6019C14.7159 19.4595 14.829 19.438 14.9346 19.395C15.0402 19.352 15.1362 19.2883 15.2168 19.2077C15.2974 19.127 15.3611 19.0311 15.4041 18.9255C15.4471 18.8199 15.4686 18.7068 15.4673 18.5928V16.1275C15.4686 16.0134 15.4471 15.9003 15.4041 15.7947C15.3611 15.6891 15.2974 15.5932 15.2168 15.5125C15.1362 15.4319 15.0402 15.3682 14.9346 15.3252C14.829 15.2822 14.7159 15.2607 14.6019 15.2621V15.252ZM14.5113 18.0695C14.5088 18.1835 14.4624 18.292 14.3818 18.3726C14.3012 18.4532 14.1926 18.4996 14.0786 18.5022H12.6498C12.535 18.5022 12.425 18.4566 12.3438 18.3755C12.2627 18.2943 12.2171 18.1843 12.2171 18.0695V16.6507C12.2171 16.5359 12.2627 16.4259 12.3438 16.3447C12.425 16.2636 12.535 16.218 12.6498 16.218H14.0686C14.1833 16.218 14.2934 16.2636 14.3745 16.3447C14.4557 16.4259 14.5013 16.5359 14.5013 16.6507L14.5113 18.0695ZM22.8732 15.252H20.3979C20.2838 15.2507 20.1707 15.2721 20.0651 15.3151C19.9595 15.3582 19.8636 15.4218 19.7829 15.5025C19.7023 15.5831 19.6386 15.679 19.5956 15.7846C19.5526 15.8902 19.5311 16.0034 19.5325 16.1174V18.5928C19.5311 18.7068 19.5526 18.8199 19.5956 18.9255C19.6386 19.0311 19.7023 19.127 19.7829 19.2077C19.8636 19.2883 19.9595 19.352 20.0651 19.395C20.1707 19.438 20.2838 19.4595 20.3979 19.4581H22.8732C22.9872 19.4595 23.1004 19.438 23.206 19.395C23.3116 19.352 23.4075 19.2883 23.4881 19.2077C23.5688 19.127 23.6325 19.0311 23.6755 18.9255C23.7185 18.8199 23.74 18.7068 23.7386 18.5928V16.1275C23.74 16.0134 23.7185 15.9003 23.6755 15.7947C23.6325 15.6891 23.5688 15.5932 23.4881 15.5125C23.4075 15.4319 23.3116 15.3682 23.206 15.3252C23.1004 15.2822 22.9872 15.2607 22.8732 15.2621V15.252ZM22.7827 18.0695C22.7827 18.1843 22.7371 18.2943 22.6559 18.3755C22.5748 18.4566 22.4647 18.5022 22.35 18.5022H20.9211C20.8072 18.4996 20.6986 18.4532 20.618 18.3726C20.5374 18.292 20.491 18.1835 20.4884 18.0695V16.6507C20.4884 16.5359 20.534 16.4259 20.6152 16.3447C20.6963 16.2636 20.8064 16.218 20.9211 16.218H22.35C22.4647 16.218 22.5748 16.2636 22.6559 16.3447C22.7371 16.4259 22.7827 16.5359 22.7827 16.6507V18.0695ZM22.8732 15.252H20.3979C20.2838 15.2507 20.1707 15.2721 20.0651 15.3151C19.9595 15.3582 19.8636 15.4218 19.7829 15.5025C19.7023 15.5831 19.6386 15.679 19.5956 15.7846C19.5526 15.8902 19.5311 16.0034 19.5325 16.1174V18.5928C19.5311 18.7068 19.5526 18.8199 19.5956 18.9255C19.6386 19.0311 19.7023 19.127 19.7829 19.2077C19.8636 19.2883 19.9595 19.352 20.0651 19.395C20.1707 19.438 20.2838 19.4595 20.3979 19.4581H22.8732C22.9872 19.4595 23.1004 19.438 23.206 19.395C23.3116 19.352 23.4075 19.2883 23.4881 19.2077C23.5688 19.127 23.6325 19.0311 23.6755 18.9255C23.7185 18.8199 23.74 18.7068 23.7386 18.5928V16.1275C23.74 16.0134 23.7185 15.9003 23.6755 15.7947C23.6325 15.6891 23.5688 15.5932 23.4881 15.5125C23.4075 15.4319 23.3116 15.3682 23.206 15.3252C23.1004 15.2822 22.9872 15.2607 22.8732 15.2621V15.252ZM22.7827 18.0695C22.7827 18.1843 22.7371 18.2943 22.6559 18.3755C22.5748 18.4566 22.4647 18.5022 22.35 18.5022H20.9211C20.8072 18.4996 20.6986 18.4532 20.618 18.3726C20.5374 18.292 20.491 18.1835 20.4884 18.0695V16.6507C20.4884 16.5359 20.534 16.4259 20.6152 16.3447C20.6963 16.2636 20.8064 16.218 20.9211 16.218H22.35C22.4647 16.218 22.5748 16.2636 22.6559 16.3447C22.7371 16.4259 22.7827 16.5359 22.7827 16.6507V18.0695ZM14.6019 23.5234H12.1265C12.0125 23.522 11.8994 23.5435 11.7938 23.5865C11.6882 23.6295 11.5922 23.6932 11.5116 23.7738C11.431 23.8544 11.3673 23.9504 11.3243 24.056C11.2813 24.1616 11.2598 24.2747 11.2612 24.3887V26.8641C11.2598 26.9781 11.2813 27.0912 11.3243 27.1968C11.3673 27.3024 11.431 27.3984 11.5116 27.479C11.5922 27.5596 11.6882 27.6233 11.7938 27.6663C11.8994 27.7094 12.0125 27.7308 12.1265 27.7295H14.6019C14.7159 27.7308 14.829 27.7094 14.9346 27.6663C15.0402 27.6233 15.1362 27.5596 15.2168 27.479C15.2974 27.3984 15.3611 27.3024 15.4041 27.1968C15.4471 27.0912 15.4686 26.9781 15.4673 26.8641V24.3988C15.4686 24.2848 15.4471 24.1716 15.4041 24.066C15.3611 23.9604 15.2974 23.8645 15.2168 23.7839C15.1362 23.7032 15.0402 23.6396 14.9346 23.5965C14.829 23.5535 14.7159 23.5321 14.6019 23.5334V23.5234ZM14.5113 26.3408C14.5113 26.4556 14.4657 26.5657 14.3846 26.6468C14.3035 26.7279 14.1934 26.7735 14.0786 26.7735H12.6498C12.535 26.7735 12.425 26.7279 12.3438 26.6468C12.2627 26.5657 12.2171 26.4556 12.2171 26.3408V24.922C12.2171 24.8073 12.2627 24.6972 12.3438 24.6161C12.425 24.5349 12.535 24.4894 12.6498 24.4894H14.0686C14.1825 24.4919 14.2911 24.5383 14.3717 24.6189C14.4523 24.6995 14.4987 24.8081 14.5013 24.922L14.5113 26.3408ZM22.8732 15.2721H20.3979C20.2838 15.2708 20.1707 15.2923 20.0651 15.3353C19.9595 15.3783 19.8636 15.442 19.7829 15.5226C19.7023 15.6032 19.6386 15.6992 19.5956 15.8048C19.5526 15.9104 19.5311 16.0235 19.5325 16.1375V18.6129C19.5311 18.7269 19.5526 18.84 19.5956 18.9456C19.6386 19.0512 19.7023 19.1472 19.7829 19.2278C19.8636 19.3084 19.9595 19.3721 20.0651 19.4151C20.1707 19.4581 20.2838 19.4796 20.3979 19.4782H22.8732C22.9872 19.4796 23.1004 19.4581 23.206 19.4151C23.3116 19.3721 23.4075 19.3084 23.4881 19.2278C23.5688 19.1472 23.6325 19.0512 23.6755 18.9456C23.7185 18.84 23.74 18.7269 23.7386 18.6129V16.1275C23.74 16.0134 23.7185 15.9003 23.6755 15.7947C23.6325 15.6891 23.5688 15.5932 23.4881 15.5125C23.4075 15.4319 23.3116 15.3682 23.206 15.3252C23.1004 15.2822 22.9872 15.2607 22.8732 15.2621V15.2721ZM22.7827 18.0695C22.7827 18.1843 22.7371 18.2943 22.6559 18.3755C22.5748 18.4566 22.4647 18.5022 22.35 18.5022H20.9211C20.8072 18.4996 20.6986 18.4532 20.618 18.3726C20.5374 18.292 20.491 18.1835 20.4884 18.0695V16.6507C20.4884 16.5359 20.534 16.4259 20.6152 16.3447C20.6963 16.2636 20.8064 16.218 20.9211 16.218H22.35C22.4647 16.218 22.5748 16.2636 22.6559 16.3447C22.7371 16.4259 22.7827 16.5359 22.7827 16.6507V18.0695ZM22.8732 15.252H20.3979C20.2838 15.2507 20.1707 15.2721 20.0651 15.3151C19.9595 15.3582 19.8636 15.4218 19.7829 15.5025C19.7023 15.5831 19.6386 15.679 19.5956 15.7846C19.5526 15.8902 19.5311 16.0034 19.5325 16.1174V18.5928C19.5311 18.7068 19.5526 18.8199 19.5956 18.9255C19.6386 19.0311 19.7023 19.127 19.7829 19.2077C19.8636 19.2883 19.9595 19.352 20.0651 19.395C20.1707 19.438 20.2838 19.4595 20.3979 19.4581H22.8732C22.9872 19.4595 23.1004 19.438 23.206 19.395C23.3116 19.352 23.4075 19.2883 23.4881 19.2077C23.5688 19.127 23.6325 19.0311 23.6755 18.9255C23.7185 18.8199 23.74 18.7068 23.7386 18.5928V16.1275C23.74 16.0134 23.7185 15.9003 23.6755 15.7947C23.6325 15.6891 23.5688 15.5932 23.4881 15.5125C23.4075 15.4319 23.3116 15.3682 23.206 15.3252C23.1004 15.2822 22.9872 15.2607 22.8732 15.2621V15.252ZM22.7827 18.0695C22.7827 18.1843 22.7371 18.2943 22.6559 18.3755C22.5748 18.4566 22.4647 18.5022 22.35 18.5022H20.9211C20.8072 18.4996 20.6986 18.4532 20.618 18.3726C20.5374 18.292 20.491 18.1835 20.4884 18.0695V16.6507C20.4884 16.5359 20.534 16.4259 20.6152 16.3447C20.6963 16.2636 20.8064 16.218 20.9211 16.218H22.35C22.4647 16.218 22.5748 16.2636 22.6559 16.3447C22.7371 16.4259 22.7827 16.5359 22.7827 16.6507V18.0695ZM14.6019 23.5234H12.1265C12.0125 23.522 11.8994 23.5435 11.7938 23.5865C11.6882 23.6295 11.5922 23.6932 11.5116 23.7738C11.431 23.8544 11.3673 23.9504 11.3243 24.056C11.2813 24.1616 11.2598 24.2747 11.2612 24.3887V26.8641C11.2598 26.9781 11.2813 27.0912 11.3243 27.1968C11.3673 27.3024 11.431 27.3984 11.5116 27.479C11.5922 27.5596 11.6882 27.6233 11.7938 27.6663C11.8994 27.7094 12.0125 27.7308 12.1265 27.7295H14.6019C14.7159 27.7308 14.829 27.7094 14.9346 27.6663C15.0402 27.6233 15.1362 27.5596 15.2168 27.479C15.2974 27.3984 15.3611 27.3024 15.4041 27.1968C15.4471 27.0912 15.4686 26.9781 15.4673 26.8641V24.3988C15.4686 24.2848 15.4471 24.1716 15.4041 24.066C15.3611 23.9604 15.2974 23.8645 15.2168 23.7839C15.1362 23.7032 15.0402 23.6396 14.9346 23.5965C14.829 23.5535 14.7159 23.5321 14.6019 23.5334V23.5234ZM14.5113 26.3408C14.5113 26.4556 14.4657 26.5657 14.3846 26.6468C14.3035 26.7279 14.1934 26.7735 14.0786 26.7735H12.6498C12.535 26.7735 12.425 26.7279 12.3438 26.6468C12.2627 26.5657 12.2171 26.4556 12.2171 26.3408V24.922C12.2171 24.8073 12.2627 24.6972 12.3438 24.6161C12.425 24.5349 12.535 24.4894 12.6498 24.4894H14.0686C14.1825 24.4919 14.2911 24.5383 14.3717 24.6189C14.4523 24.6995 14.4987 24.8081 14.5013 24.922L14.5113 26.3408ZM14.6019 23.5234H12.1265C12.0125 23.522 11.8994 23.5435 11.7938 23.5865C11.6882 23.6295 11.5922 23.6932 11.5116 23.7738C11.431 23.8544 11.3673 23.9504 11.3243 24.056C11.2813 24.1616 11.2598 24.2747 11.2612 24.3887V26.8641C11.2598 26.9781 11.2813 27.0912 11.3243 27.1968C11.3673 27.3024 11.431 27.3984 11.5116 27.479C11.5922 27.5596 11.6882 27.6233 11.7938 27.6663C11.8994 27.7094 12.0125 27.7308 12.1265 27.7295H14.6019C14.7159 27.7308 14.829 27.7094 14.9346 27.6663C15.0402 27.6233 15.1362 27.5596 15.2168 27.479C15.2974 27.3984 15.3611 27.3024 15.4041 27.1968C15.4471 27.0912 15.4686 26.9781 15.4673 26.8641V24.3988C15.4686 24.2848 15.4471 24.1716 15.4041 24.066C15.3611 23.9604 15.2974 23.8645 15.2168 23.7839C15.1362 23.7032 15.0402 23.6396 14.9346 23.5965C14.829 23.5535 14.7159 23.5321 14.6019 23.5334V23.5234ZM14.5113 26.3408C14.5113 26.4556 14.4657 26.5657 14.3846 26.6468C14.3035 26.7279 14.1934 26.7735 14.0786 26.7735H12.6498C12.535 26.7735 12.425 26.7279 12.3438 26.6468C12.2627 26.5657 12.2171 26.4556 12.2171 26.3408V24.922C12.2171 24.8073 12.2627 24.6972 12.3438 24.6161C12.425 24.5349 12.535 24.4894 12.6498 24.4894H14.0686C14.1825 24.4919 14.2911 24.5383 14.3717 24.6189C14.4523 24.6995 14.4987 24.8081 14.5013 24.922L14.5113 26.3408ZM22.8732 15.2721H20.3979C20.2838 15.2708 20.1707 15.2923 20.0651 15.3353C19.9595 15.3783 19.8636 15.442 19.7829 15.5226C19.7023 15.6032 19.6386 15.6992 19.5956 15.8048C19.5526 15.9104 19.5311 16.0235 19.5325 16.1375V18.6129C19.5311 18.7269 19.5526 18.84 19.5956 18.9456C19.6386 19.0512 19.7023 19.1472 19.7829 19.2278C19.8636 19.3084 19.9595 19.3721 20.0651 19.4151C20.1707 19.4581 20.2838 19.4796 20.3979 19.4782H22.8732C22.9872 19.4796 23.1004 19.4581 23.206 19.4151C23.3116 19.3721 23.4075 19.3084 23.4881 19.2278C23.5688 19.1472 23.6325 19.0512 23.6755 18.9456C23.7185 18.84 23.74 18.7269 23.7386 18.6129V16.1275C23.74 16.0134 23.7185 15.9003 23.6755 15.7947C23.6325 15.6891 23.5688 15.5932 23.4881 15.5125C23.4075 15.4319 23.3116 15.3682 23.206 15.3252C23.1004 15.2822 22.9872 15.2607 22.8732 15.2621V15.2721ZM22.7827 18.0695C22.7827 18.1843 22.7371 18.2943 22.6559 18.3755C22.5748 18.4566 22.4647 18.5022 22.35 18.5022H20.9211C20.8072 18.4996 20.6986 18.4532 20.618 18.3726C20.5374 18.292 20.491 18.1835 20.4884 18.0695V16.6507C20.4884 16.5359 20.534 16.4259 20.6152 16.3447C20.6963 16.2636 20.8064 16.218 20.9211 16.218H22.35C22.4647 16.218 22.5748 16.2636 22.6559 16.3447C22.7371 16.4259 22.7827 16.5359 22.7827 16.6507V18.0695ZM22.8732 15.252H20.3979C20.2838 15.2507 20.1707 15.2721 20.0651 15.3151C19.9595 15.3582 19.8636 15.4218 19.7829 15.5025C19.7023 15.5831 19.6386 15.679 19.5956 15.7846C19.5526 15.8902 19.5311 16.0034 19.5325 16.1174V18.5928C19.5311 18.7068 19.5526 18.8199 19.5956 18.9255C19.6386 19.0311 19.7023 19.127 19.7829 19.2077C19.8636 19.2883 19.9595 19.352 20.0651 19.395C20.1707 19.438 20.2838 19.4595 20.3979 19.4581H22.8732C22.9872 19.4595 23.1004 19.438 23.206 19.395C23.3116 19.352 23.4075 19.2883 23.4881 19.2077C23.5688 19.127 23.6325 19.0311 23.6755 18.9255C23.7185 18.8199 23.74 18.7068 23.7386 18.5928V16.1275C23.74 16.0134 23.7185 15.9003 23.6755 15.7947C23.6325 15.6891 23.5688 15.5932 23.4881 15.5125C23.4075 15.4319 23.3116 15.3682 23.206 15.3252C23.1004 15.2822 22.9872 15.2607 22.8732 15.2621V15.252ZM22.7827 18.0695C22.7827 18.1843 22.7371 18.2943 22.6559 18.3755C22.5748 18.4566 22.4647 18.5022 22.35 18.5022H20.9211C20.8072 18.4996 20.6986 18.4532 20.618 18.3726C20.5374 18.292 20.491 18.1835 20.4884 18.0695V16.6507C20.4884 16.5359 20.534 16.4259 20.6152 16.3447C20.6963 16.2636 20.8064 16.218 20.9211 16.218H22.35C22.4647 16.218 22.5748 16.2636 22.6559 16.3447C22.7371 16.4259 22.7827 16.5359 22.7827 16.6507V18.0695ZM14.6019 23.5234H12.1265C12.0125 23.522 11.8994 23.5435 11.7938 23.5865C11.6882 23.6295 11.5922 23.6932 11.5116 23.7738C11.431 23.8544 11.3673 23.9504 11.3243 24.056C11.2813 24.1616 11.2598 24.2747 11.2612 24.3887V26.8641C11.2598 26.9781 11.2813 27.0912 11.3243 27.1968C11.3673 27.3024 11.431 27.3984 11.5116 27.479C11.5922 27.5596 11.6882 27.6233 11.7938 27.6663C11.8994 27.7094 12.0125 27.7308 12.1265 27.7295H14.6019C14.7159 27.7308 14.829 27.7094 14.9346 27.6663C15.0402 27.6233 15.1362 27.5596 15.2168 27.479C15.2974 27.3984 15.3611 27.3024 15.4041 27.1968C15.4471 27.0912 15.4686 26.9781 15.4673 26.8641V24.3988C15.4686 24.2848 15.4471 24.1716 15.4041 24.066C15.3611 23.9604 15.2974 23.8645 15.2168 23.7839C15.1362 23.7032 15.0402 23.6396 14.9346 23.5965C14.829 23.5535 14.7159 23.5321 14.6019 23.5334V23.5234ZM14.5113 26.3408C14.5113 26.4556 14.4657 26.5657 14.3846 26.6468C14.3035 26.7279 14.1934 26.7735 14.0786 26.7735H12.6498C12.535 26.7735 12.425 26.7279 12.3438 26.6468C12.2627 26.5657 12.2171 26.4556 12.2171 26.3408V24.922C12.2171 24.8073 12.2627 24.6972 12.3438 24.6161C12.425 24.5349 12.535 24.4894 12.6498 24.4894H14.0686C14.1825 24.4919 14.2911 24.5383 14.3717 24.6189C14.4523 24.6995 14.4987 24.8081 14.5013 24.922L14.5113 26.3408ZM14.6019 23.5234H12.1265C12.0125 23.522 11.8994 23.5435 11.7938 23.5865C11.6882 23.6295 11.5922 23.6932 11.5116 23.7738C11.431 23.8544 11.3673 23.9504 11.3243 24.056C11.2813 24.1616 11.2598 24.2747 11.2612 24.3887V26.8641C11.2598 26.9781 11.2813 27.0912 11.3243 27.1968C11.3673 27.3024 11.431 27.3984 11.5116 27.479C11.5922 27.5596 11.6882 27.6233 11.7938 27.6663C11.8994 27.7094 12.0125 27.7308 12.1265 27.7295H14.6019C14.7159 27.7308 14.829 27.7094 14.9346 27.6663C15.0402 27.6233 15.1362 27.5596 15.2168 27.479C15.2974 27.3984 15.3611 27.3024 15.4041 27.1968C15.4471 27.0912 15.4686 26.9781 15.4673 26.8641V24.3988C15.4686 24.2848 15.4471 24.1716 15.4041 24.066C15.3611 23.9604 15.2974 23.8645 15.2168 23.7839C15.1362 23.7032 15.0402 23.6396 14.9346 23.5965C14.829 23.5535 14.7159 23.5321 14.6019 23.5334V23.5234ZM14.5113 26.3408C14.5113 26.4556 14.4657 26.5657 14.3846 26.6468C14.3035 26.7279 14.1934 26.7735 14.0786 26.7735H12.6498C12.535 26.7735 12.425 26.7279 12.3438 26.6468C12.2627 26.5657 12.2171 26.4556 12.2171 26.3408V24.922C12.2171 24.8073 12.2627 24.6972 12.3438 24.6161C12.425 24.5349 12.535 24.4894 12.6498 24.4894H14.0686C14.1825 24.4919 14.2911 24.5383 14.3717 24.6189C14.4523 24.6995 14.4987 24.8081 14.5013 24.922L14.5113 26.3408ZM22.8732 15.2721H20.3979C20.2838 15.2708 20.1707 15.2923 20.0651 15.3353C19.9595 15.3783 19.8636 15.442 19.7829 15.5226C19.7023 15.6032 19.6386 15.6992 19.5956 15.8048C19.5526 15.9104 19.5311 16.0235 19.5325 16.1375V18.6129C19.5311 18.7269 19.5526 18.84 19.5956 18.9456C19.6386 19.0512 19.7023 19.1472 19.7829 19.2278C19.8636 19.3084 19.9595 19.3721 20.0651 19.4151C20.1707 19.4581 20.2838 19.4796 20.3979 19.4782H22.8732C22.9872 19.4796 23.1004 19.4581 23.206 19.4151C23.3116 19.3721 23.4075 19.3084 23.4881 19.2278C23.5688 19.1472 23.6325 19.0512 23.6755 18.9456C23.7185 18.84 23.74 18.7269 23.7386 18.6129V16.1275C23.74 16.0134 23.7185 15.9003 23.6755 15.7947C23.6325 15.6891 23.5688 15.5932 23.4881 15.5125C23.4075 15.4319 23.3116 15.3682 23.206 15.3252C23.1004 15.2822 22.9872 15.2607 22.8732 15.2621V15.2721ZM22.7827 18.0695C22.7827 18.1843 22.7371 18.2943 22.6559 18.3755C22.5748 18.4566 22.4647 18.5022 22.35 18.5022H20.9211C20.8072 18.4996 20.6986 18.4532 20.618 18.3726C20.5374 18.292 20.491 18.1835 20.4884 18.0695V16.6507C20.4884 16.5359 20.534 16.4259 20.6152 16.3447C20.6963 16.2636 20.8064 16.218 20.9211 16.218H22.35C22.4647 16.218 22.5748 16.2636 22.6559 16.3447C22.7371 16.4259 22.7827 16.5359 22.7827 16.6507V18.0695ZM22.8732 15.252H20.3979C20.2838 15.2507 20.1707 15.2721 20.0651 15.3151C19.9595 15.3582 19.8636 15.4218 19.7829 15.5025C19.7023 15.5831 19.6386 15.679 19.5956 15.7846C19.5526 15.8902 19.5311 16.0034 19.5325 16.1174V18.5928C19.5311 18.7068 19.5526 18.8199 19.5956 18.9255C19.6386 19.0311 19.7023 19.127 19.7829 19.2077C19.8636 19.2883 19.9595 19.352 20.0651 19.395C20.1707 19.438 20.2838 19.4595 20.3979 19.4581H22.8732C22.9872 19.4595 23.1004 19.438 23.206 19.395C23.3116 19.352 23.4075 19.2883 23.4881 19.2077C23.5688 19.127 23.6325 19.0311 23.6755 18.9255C23.7185 18.8199 23.74 18.7068 23.7386 18.5928V16.1275C23.74 16.0134 23.7185 15.9003 23.6755 15.7947C23.6325 15.6891 23.5688 15.5932 23.4881 15.5125C23.4075 15.4319 23.3116 15.3682 23.206 15.3252C23.1004 15.2822 22.9872 15.2607 22.8732 15.2621V15.252ZM22.7827 18.0695C22.7827 18.1843 22.7371 18.2943 22.6559 18.3755C22.5748 18.4566 22.4647 18.5022 22.35 18.5022H20.9211C20.8072 18.4996 20.6986 18.4532 20.618 18.3726C20.5374 18.292 20.491 18.1835 20.4884 18.0695V16.6507C20.4884 16.5359 20.534 16.4259 20.6152 16.3447C20.6963 16.2636 20.8064 16.218 20.9211 16.218H22.35C22.4647 16.218 22.5748 16.2636 22.6559 16.3447C22.7371 16.4259 22.7827 16.5359 22.7827 16.6507V18.0695ZM14.6019 23.5234H12.1265C12.0125 23.522 11.8994 23.5435 11.7938 23.5865C11.6882 23.6295 11.5922 23.6932 11.5116 23.7738C11.431 23.8544 11.3673 23.9504 11.3243 24.056C11.2813 24.1616 11.2598 24.2747 11.2612 24.3887V26.8641C11.2598 26.9781 11.2813 27.0912 11.3243 27.1968C11.3673 27.3024 11.431 27.3984 11.5116 27.479C11.5922 27.5596 11.6882 27.6233 11.7938 27.6663C11.8994 27.7094 12.0125 27.7308 12.1265 27.7295H14.6019C14.7159 27.7308 14.829 27.7094 14.9346 27.6663C15.0402 27.6233 15.1362 27.5596 15.2168 27.479C15.2974 27.3984 15.3611 27.3024 15.4041 27.1968C15.4471 27.0912 15.4686 26.9781 15.4673 26.8641V24.3988C15.4686 24.2848 15.4471 24.1716 15.4041 24.066C15.3611 23.9604 15.2974 23.8645 15.2168 23.7839C15.1362 23.7032 15.0402 23.6396 14.9346 23.5965C14.829 23.5535 14.7159 23.5321 14.6019 23.5334V23.5234ZM14.5113 26.3408C14.5113 26.4556 14.4657 26.5657 14.3846 26.6468C14.3035 26.7279 14.1934 26.7735 14.0786 26.7735H12.6498C12.535 26.7735 12.425 26.7279 12.3438 26.6468C12.2627 26.5657 12.2171 26.4556 12.2171 26.3408V24.922C12.2171 24.8073 12.2627 24.6972 12.3438 24.6161C12.425 24.5349 12.535 24.4894 12.6498 24.4894H14.0686C14.1825 24.4919 14.2911 24.5383 14.3717 24.6189C14.4523 24.6995 14.4987 24.8081 14.5013 24.922L14.5113 26.3408ZM14.6019 15.2721H12.1265C12.0125 15.2708 11.8994 15.2923 11.7938 15.3353C11.6882 15.3783 11.5922 15.442 11.5116 15.5226C11.431 15.6032 11.3673 15.6992 11.3243 15.8048C11.2813 15.9104 11.2598 16.0235 11.2612 16.1375V18.6129C11.2598 18.7269 11.2813 18.84 11.3243 18.9456C11.3673 19.0512 11.431 19.1472 11.5116 19.2278C11.5922 19.3084 11.6882 19.3721 11.7938 19.4151C11.8994 19.4581 12.0125 19.4796 12.1265 19.4782H14.6019C14.7159 19.4796 14.829 19.4581 14.9346 19.4151C15.0402 19.3721 15.1362 19.3084 15.2168 19.2278C15.2974 19.1472 15.3611 19.0512 15.4041 18.9456C15.4471 18.84 15.4686 18.7269 15.4673 18.6129V16.1275C15.4686 16.0134 15.4471 15.9003 15.4041 15.7947C15.3611 15.6891 15.2974 15.5932 15.2168 15.5125C15.1362 15.4319 15.0402 15.3682 14.9346 15.3252C14.829 15.2822 14.7159 15.2607 14.6019 15.2621V15.2721ZM14.5113 18.0695C14.5088 18.1835 14.4624 18.292 14.3818 18.3726C14.3012 18.4532 14.1926 18.4996 14.0786 18.5022H12.6498C12.535 18.5022 12.425 18.4566 12.3438 18.3755C12.2627 18.2943 12.2171 18.1843 12.2171 18.0695V16.6507C12.2171 16.5359 12.2627 16.4259 12.3438 16.3447C12.425 16.2636 12.535 16.218 12.6498 16.218H14.0686C14.1833 16.218 14.2934 16.2636 14.3745 16.3447C14.4557 16.4259 14.5013 16.5359 14.5013 16.6507L14.5113 18.0695ZM22.8732 15.252H20.3979C20.2838 15.2507 20.1707 15.2721 20.0651 15.3151C19.9595 15.3582 19.8636 15.4218 19.7829 15.5025C19.7023 15.5831 19.6386 15.679 19.5956 15.7846C19.5526 15.8902 19.5311 16.0034 19.5325 16.1174V18.5928C19.5311 18.7068 19.5526 18.8199 19.5956 18.9255C19.6386 19.0311 19.7023 19.127 19.7829 19.2077C19.8636 19.2883 19.9595 19.352 20.0651 19.395C20.1707 19.438 20.2838 19.4595 20.3979 19.4581H22.8732C22.9872 19.4595 23.1004 19.438 23.206 19.395C23.3116 19.352 23.4075 19.2883 23.4881 19.2077C23.5688 19.127 23.6325 19.0311 23.6755 18.9255C23.7185 18.8199 23.74 18.7068 23.7386 18.5928V16.1275C23.74 16.0134 23.7185 15.9003 23.6755 15.7947C23.6325 15.6891 23.5688 15.5932 23.4881 15.5125C23.4075 15.4319 23.3116 15.3682 23.206 15.3252C23.1004 15.2822 22.9872 15.2607 22.8732 15.2621V15.252ZM22.7827 18.0695C22.7827 18.1843 22.7371 18.2943 22.6559 18.3755C22.5748 18.4566 22.4647 18.5022 22.35 18.5022H20.9211C20.8072 18.4996 20.6986 18.4532 20.618 18.3726C20.5374 18.292 20.491 18.1835 20.4884 18.0695V16.6507C20.4884 16.5359 20.534 16.4259 20.6152 16.3447C20.6963 16.2636 20.8064 16.218 20.9211 16.218H22.35C22.4647 16.218 22.5748 16.2636 22.6559 16.3447C22.7371 16.4259 22.7827 16.5359 22.7827 16.6507V18.0695ZM22.8732 15.252H20.3979C20.2838 15.2507 20.1707 15.2721 20.0651 15.3151C19.9595 15.3582 19.8636 15.4218 19.7829 15.5025C19.7023 15.5831 19.6386 15.679 19.5956 15.7846C19.5526 15.8902 19.5311 16.0034 19.5325 16.1174V18.5928C19.5311 18.7068 19.5526 18.8199 19.5956 18.9255C19.6386 19.0311 19.7023 19.127 19.7829 19.2077C19.8636 19.2883 19.9595 19.352 20.0651 19.395C20.1707 19.438 20.2838 19.4595 20.3979 19.4581H22.8732C22.9872 19.4595 23.1004 19.438 23.206 19.395C23.3116 19.352 23.4075 19.2883 23.4881 19.2077C23.5688 19.127 23.6325 19.0311 23.6755 18.9255C23.7185 18.8199 23.74 18.7068 23.7386 18.5928V16.1275C23.74 16.0134 23.7185 15.9003 23.6755 15.7947C23.6325 15.6891 23.5688 15.5932 23.4881 15.5125C23.4075 15.4319 23.3116 15.3682 23.206 15.3252C23.1004 15.2822 22.9872 15.2607 22.8732 15.2621V15.252ZM22.7827 18.0695C22.7827 18.1843 22.7371 18.2943 22.6559 18.3755C22.5748 18.4566 22.4647 18.5022 22.35 18.5022H20.9211C20.8072 18.4996 20.6986 18.4532 20.618 18.3726C20.5374 18.292 20.491 18.1835 20.4884 18.0695V16.6507C20.4884 16.5359 20.534 16.4259 20.6152 16.3447C20.6963 16.2636 20.8064 16.218 20.9211 16.218H22.35C22.4647 16.218 22.5748 16.2636 22.6559 16.3447C22.7371 16.4259 22.7827 16.5359 22.7827 16.6507V18.0695ZM14.6019 23.5234H12.1265C12.0125 23.522 11.8994 23.5435 11.7938 23.5865C11.6882 23.6295 11.5922 23.6932 11.5116 23.7738C11.431 23.8544 11.3673 23.9504 11.3243 24.056C11.2813 24.1616 11.2598 24.2747 11.2612 24.3887V26.8641C11.2598 26.9781 11.2813 27.0912 11.3243 27.1968C11.3673 27.3024 11.431 27.3984 11.5116 27.479C11.5922 27.5596 11.6882 27.6233 11.7938 27.6663C11.8994 27.7094 12.0125 27.7308 12.1265 27.7295H14.6019C14.7159 27.7308 14.829 27.7094 14.9346 27.6663C15.0402 27.6233 15.1362 27.5596 15.2168 27.479C15.2974 27.3984 15.3611 27.3024 15.4041 27.1968C15.4471 27.0912 15.4686 26.9781 15.4673 26.8641V24.3988C15.4686 24.2848 15.4471 24.1716 15.4041 24.066C15.3611 23.9604 15.2974 23.8645 15.2168 23.7839C15.1362 23.7032 15.0402 23.6396 14.9346 23.5965C14.829 23.5535 14.7159 23.5321 14.6019 23.5334V23.5234ZM14.5113 26.3408C14.5113 26.4556 14.4657 26.5657 14.3846 26.6468C14.3035 26.7279 14.1934 26.7735 14.0786 26.7735H12.6498C12.535 26.7735 12.425 26.7279 12.3438 26.6468C12.2627 26.5657 12.2171 26.4556 12.2171 26.3408V24.922C12.2171 24.8073 12.2627 24.6972 12.3438 24.6161C12.425 24.5349 12.535 24.4894 12.6498 24.4894H14.0686C14.1825 24.4919 14.2911 24.5383 14.3717 24.6189C14.4523 24.6995 14.4987 24.8081 14.5013 24.922L14.5113 26.3408ZM22.8732 15.2721H20.3979C20.2838 15.2708 20.1707 15.2923 20.0651 15.3353C19.9595 15.3783 19.8636 15.442 19.7829 15.5226C19.7023 15.6032 19.6386 15.6992 19.5956 15.8048C19.5526 15.9104 19.5311 16.0235 19.5325 16.1375V18.6129C19.5311 18.7269 19.5526 18.84 19.5956 18.9456C19.6386 19.0512 19.7023 19.1472 19.7829 19.2278C19.8636 19.3084 19.9595 19.3721 20.0651 19.4151C20.1707 19.4581 20.2838 19.4796 20.3979 19.4782H22.8732C22.9872 19.4796 23.1004 19.4581 23.206 19.4151C23.3116 19.3721 23.4075 19.3084 23.4881 19.2278C23.5688 19.1472 23.6325 19.0512 23.6755 18.9456C23.7185 18.84 23.74 18.7269 23.7386 18.6129V16.1275C23.74 16.0134 23.7185 15.9003 23.6755 15.7947C23.6325 15.6891 23.5688 15.5932 23.4881 15.5125C23.4075 15.4319 23.3116 15.3682 23.206 15.3252C23.1004 15.2822 22.9872 15.2607 22.8732 15.2621V15.2721ZM22.7827 18.0695C22.7827 18.1843 22.7371 18.2943 22.6559 18.3755C22.5748 18.4566 22.4647 18.5022 22.35 18.5022H20.9211C20.8072 18.4996 20.6986 18.4532 20.618 18.3726C20.5374 18.292 20.491 18.1835 20.4884 18.0695V16.6507C20.4884 16.5359 20.534 16.4259 20.6152 16.3447C20.6963 16.2636 20.8064 16.218 20.9211 16.218H22.35C22.4647 16.218 22.5748 16.2636 22.6559 16.3447C22.7371 16.4259 22.7827 16.5359 22.7827 16.6507V18.0695ZM22.8732 15.252H20.3979C20.2838 15.2507 20.1707 15.2721 20.0651 15.3151C19.9595 15.3582 19.8636 15.4218 19.7829 15.5025C19.7023 15.5831 19.6386 15.679 19.5956 15.7846C19.5526 15.8902 19.5311 16.0034 19.5325 16.1174V18.5928C19.5311 18.7068 19.5526 18.8199 19.5956 18.9255C19.6386 19.0311 19.7023 19.127 19.7829 19.2077C19.8636 19.2883 19.9595 19.352 20.0651 19.395C20.1707 19.438 20.2838 19.4595 20.3979 19.4581H22.8732C22.9872 19.4595 23.1004 19.438 23.206 19.395C23.3116 19.352 23.4075 19.2883 23.4881 19.2077C23.5688 19.127 23.6325 19.0311 23.6755 18.9255C23.7185 18.8199 23.74 18.7068 23.7386 18.5928V16.1275C23.74 16.0134 23.7185 15.9003 23.6755 15.7947C23.6325 15.6891 23.5688 15.5932 23.4881 15.5125C23.4075 15.4319 23.3116 15.3682 23.206 15.3252C23.1004 15.2822 22.9872 15.2607 22.8732 15.2621V15.252ZM22.7827 18.0695C22.7827 18.1843 22.7371 18.2943 22.6559 18.3755C22.5748 18.4566 22.4647 18.5022 22.35 18.5022H20.9211C20.8072 18.4996 20.6986 18.4532 20.618 18.3726C20.5374 18.292 20.491 18.1835 20.4884 18.0695V16.6507C20.4884 16.5359 20.534 16.4259 20.6152 16.3447C20.6963 16.2636 20.8064 16.218 20.9211 16.218H22.35C22.4647 16.218 22.5748 16.2636 22.6559 16.3447C22.7371 16.4259 22.7827 16.5359 22.7827 16.6507V18.0695ZM14.6019 23.5234H12.1265C12.0125 23.522 11.8994 23.5435 11.7938 23.5865C11.6882 23.6295 11.5922 23.6932 11.5116 23.7738C11.431 23.8544 11.3673 23.9504 11.3243 24.056C11.2813 24.1616 11.2598 24.2747 11.2612 24.3887V26.8641C11.2598 26.9781 11.2813 27.0912 11.3243 27.1968C11.3673 27.3024 11.431 27.3984 11.5116 27.479C11.5922 27.5596 11.6882 27.6233 11.7938 27.6663C11.8994 27.7094 12.0125 27.7308 12.1265 27.7295H14.6019C14.7159 27.7308 14.829 27.7094 14.9346 27.6663C15.0402 27.6233 15.1362 27.5596 15.2168 27.479C15.2974 27.3984 15.3611 27.3024 15.4041 27.1968C15.4471 27.0912 15.4686 26.9781 15.4673 26.8641V24.3988C15.4686 24.2848 15.4471 24.1716 15.4041 24.066C15.3611 23.9604 15.2974 23.8645 15.2168 23.7839C15.1362 23.7032 15.0402 23.6396 14.9346 23.5965C14.829 23.5535 14.7159 23.5321 14.6019 23.5334V23.5234ZM14.5113 26.3408C14.5113 26.4556 14.4657 26.5657 14.3846 26.6468C14.3035 26.7279 14.1934 26.7735 14.0786 26.7735H12.6498C12.535 26.7735 12.425 26.7279 12.3438 26.6468C12.2627 26.5657 12.2171 26.4556 12.2171 26.3408V24.922C12.2171 24.8073 12.2627 24.6972 12.3438 24.6161C12.425 24.5349 12.535 24.4894 12.6498 24.4894H14.0686C14.1825 24.4919 14.2911 24.5383 14.3717 24.6189C14.4523 24.6995 14.4987 24.8081 14.5013 24.922L14.5113 26.3408ZM14.6019 23.5234H12.1265C12.0125 23.522 11.8994 23.5435 11.7938 23.5865C11.6882 23.6295 11.5922 23.6932 11.5116 23.7738C11.431 23.8544 11.3673 23.9504 11.3243 24.056C11.2813 24.1616 11.2598 24.2747 11.2612 24.3887V26.8641C11.2598 26.9781 11.2813 27.0912 11.3243 27.1968C11.3673 27.3024 11.431 27.3984 11.5116 27.479C11.5922 27.5596 11.6882 27.6233 11.7938 27.6663C11.8994 27.7094 12.0125 27.7308 12.1265 27.7295H14.6019C14.7159 27.7308 14.829 27.7094 14.9346 27.6663C15.0402 27.6233 15.1362 27.5596 15.2168 27.479C15.2974 27.3984 15.3611 27.3024 15.4041 27.1968C15.4471 27.0912 15.4686 26.9781 15.4673 26.8641V24.3988C15.4686 24.2848 15.4471 24.1716 15.4041 24.066C15.3611 23.9604 15.2974 23.8645 15.2168 23.7839C15.1362 23.7032 15.0402 23.6396 14.9346 23.5965C14.829 23.5535 14.7159 23.5321 14.6019 23.5334V23.5234ZM14.5113 26.3408C14.5113 26.4556 14.4657 26.5657 14.3846 26.6468C14.3035 26.7279 14.1934 26.7735 14.0786 26.7735H12.6498C12.535 26.7735 12.425 26.7279 12.3438 26.6468C12.2627 26.5657 12.2171 26.4556 12.2171 26.3408V24.922C12.2171 24.8073 12.2627 24.6972 12.3438 24.6161C12.425 24.5349 12.535 24.4894 12.6498 24.4894H14.0686C14.1825 24.4919 14.2911 24.5383 14.3717 24.6189C14.4523 24.6995 14.4987 24.8081 14.5013 24.922L14.5113 26.3408ZM22.8732 15.2721H20.3979C20.2838 15.2708 20.1707 15.2923 20.0651 15.3353C19.9595 15.3783 19.8636 15.442 19.7829 15.5226C19.7023 15.6032 19.6386 15.6992 19.5956 15.8048C19.5526 15.9104 19.5311 16.0235 19.5325 16.1375V18.6129C19.5311 18.7269 19.5526 18.84 19.5956 18.9456C19.6386 19.0512 19.7023 19.1472 19.7829 19.2278C19.8636 19.3084 19.9595 19.3721 20.0651 19.4151C20.1707 19.4581 20.2838 19.4796 20.3979 19.4782H22.8732C22.9872 19.4796 23.1004 19.4581 23.206 19.4151C23.3116 19.3721 23.4075 19.3084 23.4881 19.2278C23.5688 19.1472 23.6325 19.0512 23.6755 18.9456C23.7185 18.84 23.74 18.7269 23.7386 18.6129V16.1275C23.74 16.0134 23.7185 15.9003 23.6755 15.7947C23.6325 15.6891 23.5688 15.5932 23.4881 15.5125C23.4075 15.4319 23.3116 15.3682 23.206 15.3252C23.1004 15.2822 22.9872 15.2607 22.8732 15.2621V15.2721ZM22.7827 18.0695C22.7827 18.1843 22.7371 18.2943 22.6559 18.3755C22.5748 18.4566 22.4647 18.5022 22.35 18.5022H20.9211C20.8072 18.4996 20.6986 18.4532 20.618 18.3726C20.5374 18.292 20.491 18.1835 20.4884 18.0695V16.6507C20.4884 16.5359 20.534 16.4259 20.6152 16.3447C20.6963 16.2636 20.8064 16.218 20.9211 16.218H22.35C22.4647 16.218 22.5748 16.2636 22.6559 16.3447C22.7371 16.4259 22.7827 16.5359 22.7827 16.6507V18.0695ZM22.8732 15.252H20.3979C20.2838 15.2507 20.1707 15.2721 20.0651 15.3151C19.9595 15.3582 19.8636 15.4218 19.7829 15.5025C19.7023 15.5831 19.6386 15.679 19.5956 15.7846C19.5526 15.8902 19.5311 16.0034 19.5325 16.1174V18.5928C19.5311 18.7068 19.5526 18.8199 19.5956 18.9255C19.6386 19.0311 19.7023 19.127 19.7829 19.2077C19.8636 19.2883 19.9595 19.352 20.0651 19.395C20.1707 19.438 20.2838 19.4595 20.3979 19.4581H22.8732C22.9872 19.4595 23.1004 19.438 23.206 19.395C23.3116 19.352 23.4075 19.2883 23.4881 19.2077C23.5688 19.127 23.6325 19.0311 23.6755 18.9255C23.7185 18.8199 23.74 18.7068 23.7386 18.5928V16.1275C23.74 16.0134 23.7185 15.9003 23.6755 15.7947C23.6325 15.6891 23.5688 15.5932 23.4881 15.5125C23.4075 15.4319 23.3116 15.3682 23.206 15.3252C23.1004 15.2822 22.9872 15.2607 22.8732 15.2621V15.252ZM22.7827 18.0695C22.7827 18.1843 22.7371 18.2943 22.6559 18.3755C22.5748 18.4566 22.4647 18.5022 22.35 18.5022H20.9211C20.8072 18.4996 20.6986 18.4532 20.618 18.3726C20.5374 18.292 20.491 18.1835 20.4884 18.0695V16.6507C20.4884 16.5359 20.534 16.4259 20.6152 16.3447C20.6963 16.2636 20.8064 16.218 20.9211 16.218H22.35C22.4647 16.218 22.5748 16.2636 22.6559 16.3447C22.7371 16.4259 22.7827 16.5359 22.7827 16.6507V18.0695ZM14.6019 23.5234H12.1265C12.0125 23.522 11.8994 23.5435 11.7938 23.5865C11.6882 23.6295 11.5922 23.6932 11.5116 23.7738C11.431 23.8544 11.3673 23.9504 11.3243 24.056C11.2813 24.1616 11.2598 24.2747 11.2612 24.3887V26.8641C11.2598 26.9781 11.2813 27.0912 11.3243 27.1968C11.3673 27.3024 11.431 27.3984 11.5116 27.479C11.5922 27.5596 11.6882 27.6233 11.7938 27.6663C11.8994 27.7094 12.0125 27.7308 12.1265 27.7295H14.6019C14.7159 27.7308 14.829 27.7094 14.9346 27.6663C15.0402 27.6233 15.1362 27.5596 15.2168 27.479C15.2974 27.3984 15.3611 27.3024 15.4041 27.1968C15.4471 27.0912 15.4686 26.9781 15.4673 26.8641V24.3988C15.4686 24.2848 15.4471 24.1716 15.4041 24.066C15.3611 23.9604 15.2974 23.8645 15.2168 23.7839C15.1362 23.7032 15.0402 23.6396 14.9346 23.5965C14.829 23.5535 14.7159 23.5321 14.6019 23.5334V23.5234ZM14.5113 26.3408C14.5113 26.4556 14.4657 26.5657 14.3846 26.6468C14.3035 26.7279 14.1934 26.7735 14.0786 26.7735H12.6498C12.535 26.7735 12.425 26.7279 12.3438 26.6468C12.2627 26.5657 12.2171 26.4556 12.2171 26.3408V24.922C12.2171 24.8073 12.2627 24.6972 12.3438 24.6161C12.425 24.5349 12.535 24.4894 12.6498 24.4894H14.0686C14.1825 24.4919 14.2911 24.5383 14.3717 24.6189C14.4523 24.6995 14.4987 24.8081 14.5013 24.922L14.5113 26.3408ZM14.6019 23.5234H12.1265C12.0125 23.522 11.8994 23.5435 11.7938 23.5865C11.6882 23.6295 11.5922 23.6932 11.5116 23.7738C11.431 23.8544 11.3673 23.9504 11.3243 24.056C11.2813 24.1616 11.2598 24.2747 11.2612 24.3887V26.8641C11.2598 26.9781 11.2813 27.0912 11.3243 27.1968C11.3673 27.3024 11.431 27.3984 11.5116 27.479C11.5922 27.5596 11.6882 27.6233 11.7938 27.6663C11.8994 27.7094 12.0125 27.7308 12.1265 27.7295H14.6019C14.7159 27.7308 14.829 27.7094 14.9346 27.6663C15.0402 27.6233 15.1362 27.5596 15.2168 27.479C15.2974 27.3984 15.3611 27.3024 15.4041 27.1968C15.4471 27.0912 15.4686 26.9781 15.4673 26.8641V24.3988C15.4686 24.2848 15.4471 24.1716 15.4041 24.066C15.3611 23.9604 15.2974 23.8645 15.2168 23.7839C15.1362 23.7032 15.0402 23.6396 14.9346 23.5965C14.829 23.5535 14.7159 23.5321 14.6019 23.5334V23.5234ZM14.5113 26.3408C14.5113 26.4556 14.4657 26.5657 14.3846 26.6468C14.3035 26.7279 14.1934 26.7735 14.0786 26.7735H12.6498C12.535 26.7735 12.425 26.7279 12.3438 26.6468C12.2627 26.5657 12.2171 26.4556 12.2171 26.3408V24.922C12.2171 24.8073 12.2627 24.6972 12.3438 24.6161C12.425 24.5349 12.535 24.4894 12.6498 24.4894H14.0686C14.1825 24.4919 14.2911 24.5383 14.3717 24.6189C14.4523 24.6995 14.4987 24.8081 14.5013 24.922L14.5113 26.3408ZM22.8732 15.2721H20.3979C20.2838 15.2708 20.1707 15.2923 20.0651 15.3353C19.9595 15.3783 19.8636 15.442 19.7829 15.5226C19.7023 15.6032 19.6386 15.6992 19.5956 15.8048C19.5526 15.9104 19.5311 16.0235 19.5325 16.1375V18.6129C19.5311 18.7269 19.5526 18.84 19.5956 18.9456C19.6386 19.0512 19.7023 19.1472 19.7829 19.2278C19.8636 19.3084 19.9595 19.3721 20.0651 19.4151C20.1707 19.4581 20.2838 19.4796 20.3979 19.4782H22.8732C22.9872 19.4796 23.1004 19.4581 23.206 19.4151C23.3116 19.3721 23.4075 19.3084 23.4881 19.2278C23.5688 19.1472 23.6325 19.0512 23.6755 18.9456C23.7185 18.84 23.74 18.7269 23.7386 18.6129V16.1275C23.74 16.0134 23.7185 15.9003 23.6755 15.7947C23.6325 15.6891 23.5688 15.5932 23.4881 15.5125C23.4075 15.4319 23.3116 15.3682 23.206 15.3252C23.1004 15.2822 22.9872 15.2607 22.8732 15.2621V15.2721ZM22.7827 18.0695C22.7827 18.1843 22.7371 18.2943 22.6559 18.3755C22.5748 18.4566 22.4647 18.5022 22.35 18.5022H20.9211C20.8072 18.4996 20.6986 18.4532 20.618 18.3726C20.5374 18.292 20.491 18.1835 20.4884 18.0695V16.6507C20.4884 16.5359 20.534 16.4259 20.6152 16.3447C20.6963 16.2636 20.8064 16.218 20.9211 16.218H22.35C22.4647 16.218 22.5748 16.2636 22.6559 16.3447C22.7371 16.4259 22.7827 16.5359 22.7827 16.6507V18.0695ZM22.8732 15.252H20.3979C20.2838 15.2507 20.1707 15.2721 20.0651 15.3151C19.9595 15.3582 19.8636 15.4218 19.7829 15.5025C19.7023 15.5831 19.6386 15.679 19.5956 15.7846C19.5526 15.8902 19.5311 16.0034 19.5325 16.1174V18.5928C19.5311 18.7068 19.5526 18.8199 19.5956 18.9255C19.6386 19.0311 19.7023 19.127 19.7829 19.2077C19.8636 19.2883 19.9595 19.352 20.0651 19.395C20.1707 19.438 20.2838 19.4595 20.3979 19.4581H22.8732C22.9872 19.4595 23.1004 19.438 23.206 19.395C23.3116 19.352 23.4075 19.2883 23.4881 19.2077C23.5688 19.127 23.6325 19.0311 23.6755 18.9255C23.7185 18.8199 23.74 18.7068 23.7386 18.5928V16.1275C23.74 16.0134 23.7185 15.9003 23.6755 15.7947C23.6325 15.6891 23.5688 15.5932 23.4881 15.5125C23.4075 15.4319 23.3116 15.3682 23.206 15.3252C23.1004 15.2822 22.9872 15.2607 22.8732 15.2621V15.252ZM22.7827 18.0695C22.7827 18.1843 22.7371 18.2943 22.6559 18.3755C22.5748 18.4566 22.4647 18.5022 22.35 18.5022H20.9211C20.8072 18.4996 20.6986 18.4532 20.618 18.3726C20.5374 18.292 20.491 18.1835 20.4884 18.0695V16.6507C20.4884 16.5359 20.534 16.4259 20.6152 16.3447C20.6963 16.2636 20.8064 16.218 20.9211 16.218H22.35C22.4647 16.218 22.5748 16.2636 22.6559 16.3447C22.7371 16.4259 22.7827 16.5359 22.7827 16.6507V18.0695ZM14.6019 23.5234H12.1265C12.0125 23.522 11.8994 23.5435 11.7938 23.5865C11.6882 23.6295 11.5922 23.6932 11.5116 23.7738C11.431 23.8544 11.3673 23.9504 11.3243 24.056C11.2813 24.1616 11.2598 24.2747 11.2612 24.3887V26.8641C11.2598 26.9781 11.2813 27.0912 11.3243 27.1968C11.3673 27.3024 11.431 27.3984 11.5116 27.479C11.5922 27.5596 11.6882 27.6233 11.7938 27.6663C11.8994 27.7094 12.0125 27.7308 12.1265 27.7295H14.6019C14.7159 27.7308 14.829 27.7094 14.9346 27.6663C15.0402 27.6233 15.1362 27.5596 15.2168 27.479C15.2974 27.3984 15.3611 27.3024 15.4041 27.1968C15.4471 27.0912 15.4686 26.9781 15.4673 26.8641V24.3988C15.4686 24.2848 15.4471 24.1716 15.4041 24.066C15.3611 23.9604 15.2974 23.8645 15.2168 23.7839C15.1362 23.7032 15.0402 23.6396 14.9346 23.5965C14.829 23.5535 14.7159 23.5321 14.6019 23.5334V23.5234ZM14.5113 26.3408C14.5113 26.4556 14.4657 26.5657 14.3846 26.6468C14.3035 26.7279 14.1934 26.7735 14.0786 26.7735H12.6498C12.535 26.7735 12.425 26.7279 12.3438 26.6468C12.2627 26.5657 12.2171 26.4556 12.2171 26.3408V24.922C12.2171 24.8073 12.2627 24.6972 12.3438 24.6161C12.425 24.5349 12.535 24.4894 12.6498 24.4894H14.0686C14.1825 24.4919 14.2911 24.5383 14.3717 24.6189C14.4523 24.6995 14.4987 24.8081 14.5013 24.922L14.5113 26.3408ZM29.6553 17.7073C29.0019 15.6166 27.8201 13.7299 26.2241 12.2297C24.6281 10.7295 22.672 9.66648 20.545 9.14351C18.4179 8.62055 16.1919 8.65531 14.0822 9.24445C11.9726 9.83358 10.0506 10.9571 8.50226 12.5065C6.9539 14.0558 5.83155 15.9785 5.24375 18.0885C4.65595 20.1986 4.62259 22.4246 5.1469 24.5513C5.6712 26.678 6.73544 28.6334 8.23666 30.2285C9.73789 31.8235 11.6253 33.0042 13.7164 33.6562C16.1787 34.4343 18.821 34.4343 21.2834 33.6562C23.2547 33.0473 25.0477 31.9665 26.5066 30.5075C27.9655 29.0486 29.0464 27.2556 29.6553 25.2843C30.4333 22.822 30.4333 20.1796 29.6553 17.7173V17.7073ZM16.8056 27.3471C16.8056 27.5744 16.7608 27.7994 16.6738 28.0094C16.5868 28.2194 16.4594 28.4102 16.2986 28.5709C16.1379 28.7316 15.9471 28.8591 15.7372 28.9461C15.5272 29.0331 15.3021 29.0778 15.0748 29.0778H11.6536C11.1946 29.0778 10.7543 28.8955 10.4298 28.5709C10.1052 28.2463 9.92285 27.8061 9.92285 27.3471V23.9259C9.92285 23.6986 9.96761 23.4735 10.0546 23.2635C10.1416 23.0535 10.2691 22.8628 10.4298 22.702C10.5905 22.5413 10.7813 22.4138 10.9913 22.3269C11.2012 22.2399 11.4263 22.1951 11.6536 22.1951H15.0748C15.5338 22.1951 15.9741 22.3775 16.2986 22.702C16.6232 23.0266 16.8056 23.4668 16.8056 23.9259V27.3471ZM16.8056 19.0758C16.8056 19.303 16.7608 19.5281 16.6738 19.7381C16.5868 19.9481 16.4594 20.1389 16.2986 20.2996C16.1379 20.4603 15.9471 20.5878 15.7372 20.6747C15.5272 20.7617 15.3021 20.8065 15.0748 20.8065H11.6536C11.1946 20.8065 10.7543 20.6241 10.4298 20.2996C10.1052 19.975 9.92285 19.5348 9.92285 19.0758V15.6545C9.92285 15.1955 10.1052 14.7553 10.4298 14.4307C10.7543 14.1061 11.1946 13.9238 11.6536 13.9238H15.0748C15.5338 13.9238 15.9741 14.1061 16.2986 14.4307C16.6232 14.7553 16.8056 15.1955 16.8056 15.6545V19.0758ZM18.1942 22.6278C18.1967 22.5138 18.2432 22.4053 18.3238 22.3247C18.4043 22.2441 18.5129 22.1977 18.6269 22.1951H20.1061C20.2208 22.1951 20.3309 22.2407 20.412 22.3218C20.4932 22.403 20.5387 22.513 20.5387 22.6278V24.107C20.5387 24.2217 20.4932 24.3318 20.412 24.4129C20.3309 24.4941 20.2208 24.5397 20.1061 24.5397H18.6269C18.5121 24.5397 18.4021 24.4941 18.3209 24.4129C18.2398 24.3318 18.1942 24.2217 18.1942 24.107V22.6278ZM20.4884 28.6653C20.4884 28.78 20.4428 28.8901 20.3617 28.9712C20.2806 29.0524 20.1705 29.098 20.0557 29.098H18.6269C18.5129 29.0954 18.4043 29.049 18.3238 28.9684C18.2432 28.8878 18.1967 28.7792 18.1942 28.6653V27.2163C18.1942 27.1015 18.2398 26.9915 18.3209 26.9103C18.4021 26.8292 18.5121 26.7836 18.6269 26.7836H20.1061C20.2208 26.7836 20.3309 26.8292 20.412 26.9103C20.4932 26.9915 20.5387 27.1015 20.5387 27.2163L20.4884 28.6653ZM22.35 26.8037H20.9211C20.8064 26.8037 20.6963 26.7581 20.6152 26.677C20.534 26.5958 20.4884 26.4858 20.4884 26.371V24.922C20.491 24.8081 20.5374 24.6995 20.618 24.6189C20.6986 24.5383 20.8072 24.4919 20.9211 24.4894H22.35C22.4647 24.4894 22.5748 24.5349 22.6559 24.6161C22.7371 24.6972 22.7827 24.8073 22.7827 24.922V26.3509C22.7827 26.4657 22.7371 26.5757 22.6559 26.6569C22.5748 26.738 22.4647 26.7836 22.35 26.7836V26.8037ZM25.0769 28.6653C25.0743 28.7792 25.0279 28.8878 24.9473 28.9684C24.8667 29.049 24.7582 29.0954 24.6442 29.098H23.2154C23.1006 29.098 22.9905 29.0524 22.9094 28.9712C22.8283 28.8901 22.7827 28.78 22.7827 28.6653V27.2163C22.7827 27.1015 22.8283 26.9915 22.9094 26.9103C22.9905 26.8292 23.1006 26.7836 23.2154 26.7836H24.6442C24.759 26.7836 24.869 26.8292 24.9502 26.9103C25.0313 26.9915 25.0769 27.1015 25.0769 27.2163V28.6653ZM25.0769 24.0768C25.0769 24.1915 25.0313 24.3016 24.9502 24.3827C24.869 24.4639 24.759 24.5095 24.6442 24.5095H23.2154C23.1006 24.5095 22.9905 24.4639 22.9094 24.3827C22.8283 24.3016 22.7827 24.1915 22.7827 24.0768V22.6278C22.7827 22.513 22.8283 22.403 22.9094 22.3218C22.9905 22.2407 23.1006 22.1951 23.2154 22.1951H24.6442C24.7582 22.1977 24.8667 22.2441 24.9473 22.3247C25.0279 22.4053 25.0743 22.5138 25.0769 22.6278V24.0768ZM25.0769 19.0959C25.0769 19.3232 25.0321 19.5482 24.9452 19.7582C24.8582 19.9682 24.7307 20.159 24.57 20.3197C24.4093 20.4804 24.2185 20.6079 24.0085 20.6949C23.7985 20.7819 23.5734 20.8266 23.3462 20.8266H19.9249C19.6959 20.8266 19.4692 20.7812 19.2579 20.693C19.0466 20.6047 18.8549 20.4755 18.6939 20.3126C18.533 20.1498 18.4059 19.9566 18.3201 19.7443C18.2343 19.5319 18.1915 19.3047 18.1942 19.0758V15.6545C18.1942 15.1955 18.3765 14.7553 18.7011 14.4307C19.0257 14.1061 19.4659 13.9238 19.9249 13.9238H23.3462C23.5734 13.9238 23.7985 13.9685 24.0085 14.0555C24.2185 14.1425 24.4093 14.27 24.57 14.4307C24.7307 14.5914 24.8582 14.7822 24.9452 14.9922C25.0321 15.2022 25.0769 15.4272 25.0769 15.6545V19.0959ZM22.8732 15.2621H20.3979C20.2838 15.2607 20.1707 15.2822 20.0651 15.3252C19.9595 15.3682 19.8636 15.4319 19.7829 15.5125C19.7023 15.5932 19.6386 15.6891 19.5956 15.7947C19.5526 15.9003 19.5311 16.0134 19.5325 16.1275V18.6028C19.5311 18.7168 19.5526 18.83 19.5956 18.9356C19.6386 19.0412 19.7023 19.1371 19.7829 19.2177C19.8636 19.2984 19.9595 19.3621 20.0651 19.4051C20.1707 19.4481 20.2838 19.4695 20.3979 19.4682H22.8732C22.9872 19.4695 23.1004 19.4481 23.206 19.4051C23.3116 19.3621 23.4075 19.2984 23.4881 19.2177C23.5688 19.1371 23.6325 19.0412 23.6755 18.9356C23.7185 18.83 23.74 18.7168 23.7386 18.6028V16.1275C23.74 16.0134 23.7185 15.9003 23.6755 15.7947C23.6325 15.6891 23.5688 15.5932 23.4881 15.5125C23.4075 15.4319 23.3116 15.3682 23.206 15.3252C23.1004 15.2822 22.9872 15.2607 22.8732 15.2621ZM22.7827 18.0695C22.7827 18.1843 22.7371 18.2943 22.6559 18.3755C22.5748 18.4566 22.4647 18.5022 22.35 18.5022H20.9211C20.8072 18.4996 20.6986 18.4532 20.618 18.3726C20.5374 18.292 20.491 18.1835 20.4884 18.0695V16.6507C20.4884 16.5359 20.534 16.4259 20.6152 16.3447C20.6963 16.2636 20.8064 16.218 20.9211 16.218H22.35C22.4647 16.218 22.5748 16.2636 22.6559 16.3447C22.7371 16.4259 22.7827 16.5359 22.7827 16.6507V18.0695ZM14.6019 23.5234H12.1265C12.0125 23.522 11.8994 23.5435 11.7938 23.5865C11.6882 23.6295 11.5922 23.6932 11.5116 23.7738C11.431 23.8544 11.3673 23.9504 11.3243 24.056C11.2813 24.1616 11.2598 24.2747 11.2612 24.3887V26.8641C11.2598 26.9781 11.2813 27.0912 11.3243 27.1968C11.3673 27.3024 11.431 27.3984 11.5116 27.479C11.5922 27.5596 11.6882 27.6233 11.7938 27.6663C11.8994 27.7094 12.0125 27.7308 12.1265 27.7295H14.6019C14.7159 27.7308 14.829 27.7094 14.9346 27.6663C15.0402 27.6233 15.1362 27.5596 15.2168 27.479C15.2974 27.3984 15.3611 27.3024 15.4041 27.1968C15.4471 27.0912 15.4686 26.9781 15.4673 26.8641V24.3988C15.4686 24.2848 15.4471 24.1716 15.4041 24.066C15.3611 23.9604 15.2974 23.8645 15.2168 23.7839C15.1362 23.7032 15.0402 23.6396 14.9346 23.5965C14.829 23.5535 14.7159 23.5321 14.6019 23.5334V23.5234ZM14.5113 26.3408C14.5113 26.4556 14.4657 26.5657 14.3846 26.6468C14.3035 26.7279 14.1934 26.7735 14.0786 26.7735H12.6498C12.535 26.7735 12.425 26.7279 12.3438 26.6468C12.2627 26.5657 12.2171 26.4556 12.2171 26.3408V24.922C12.2171 24.8073 12.2627 24.6972 12.3438 24.6161C12.425 24.5349 12.535 24.4894 12.6498 24.4894H14.0686C14.1825 24.4919 14.2911 24.5383 14.3717 24.6189C14.4523 24.6995 14.4987 24.8081 14.5013 24.922L14.5113 26.3408ZM14.6019 23.5234H12.1265C12.0125 23.522 11.8994 23.5435 11.7938 23.5865C11.6882 23.6295 11.5922 23.6932 11.5116 23.7738C11.431 23.8544 11.3673 23.9504 11.3243 24.056C11.2813 24.1616 11.2598 24.2747 11.2612 24.3887V26.8641C11.2598 26.9781 11.2813 27.0912 11.3243 27.1968C11.3673 27.3024 11.431 27.3984 11.5116 27.479C11.5922 27.5596 11.6882 27.6233 11.7938 27.6663C11.8994 27.7094 12.0125 27.7308 12.1265 27.7295H14.6019C14.7159 27.7308 14.829 27.7094 14.9346 27.6663C15.0402 27.6233 15.1362 27.5596 15.2168 27.479C15.2974 27.3984 15.3611 27.3024 15.4041 27.1968C15.4471 27.0912 15.4686 26.9781 15.4673 26.8641V24.3988C15.4686 24.2848 15.4471 24.1716 15.4041 24.066C15.3611 23.9604 15.2974 23.8645 15.2168 23.7839C15.1362 23.7032 15.0402 23.6396 14.9346 23.5965C14.829 23.5535 14.7159 23.5321 14.6019 23.5334V23.5234ZM14.5113 26.3408C14.5113 26.4556 14.4657 26.5657 14.3846 26.6468C14.3035 26.7279 14.1934 26.7735 14.0786 26.7735H12.6498C12.535 26.7735 12.425 26.7279 12.3438 26.6468C12.2627 26.5657 12.2171 26.4556 12.2171 26.3408V24.922C12.2171 24.8073 12.2627 24.6972 12.3438 24.6161C12.425 24.5349 12.535 24.4894 12.6498 24.4894H14.0686C14.1825 24.4919 14.2911 24.5383 14.3717 24.6189C14.4523 24.6995 14.4987 24.8081 14.5013 24.922L14.5113 26.3408ZM22.8732 15.2721H20.3979C20.2838 15.2708 20.1707 15.2923 20.0651 15.3353C19.9595 15.3783 19.8636 15.442 19.7829 15.5226C19.7023 15.6032 19.6386 15.6992 19.5956 15.8048C19.5526 15.9104 19.5311 16.0235 19.5325 16.1375V18.6129C19.5311 18.7269 19.5526 18.84 19.5956 18.9456C19.6386 19.0512 19.7023 19.1472 19.7829 19.2278C19.8636 19.3084 19.9595 19.3721 20.0651 19.4151C20.1707 19.4581 20.2838 19.4796 20.3979 19.4782H22.8732C22.9872 19.4796 23.1004 19.4581 23.206 19.4151C23.3116 19.3721 23.4075 19.3084 23.4881 19.2278C23.5688 19.1472 23.6325 19.0512 23.6755 18.9456C23.7185 18.84 23.74 18.7269 23.7386 18.6129V16.1275C23.74 16.0134 23.7185 15.9003 23.6755 15.7947C23.6325 15.6891 23.5688 15.5932 23.4881 15.5125C23.4075 15.4319 23.3116 15.3682 23.206 15.3252C23.1004 15.2822 22.9872 15.2607 22.8732 15.2621V15.2721ZM22.7827 18.0695C22.7827 18.1843 22.7371 18.2943 22.6559 18.3755C22.5748 18.4566 22.4647 18.5022 22.35 18.5022H20.9211C20.8072 18.4996 20.6986 18.4532 20.618 18.3726C20.5374 18.292 20.491 18.1835 20.4884 18.0695V16.6507C20.4884 16.5359 20.534 16.4259 20.6152 16.3447C20.6963 16.2636 20.8064 16.218 20.9211 16.218H22.35C22.4647 16.218 22.5748 16.2636 22.6559 16.3447C22.7371 16.4259 22.7827 16.5359 22.7827 16.6507V18.0695ZM22.8732 15.252H20.3979C20.2838 15.2507 20.1707 15.2721 20.0651 15.3151C19.9595 15.3582 19.8636 15.4218 19.7829 15.5025C19.7023 15.5831 19.6386 15.679 19.5956 15.7846C19.5526 15.8902 19.5311 16.0034 19.5325 16.1174V18.5928C19.5311 18.7068 19.5526 18.8199 19.5956 18.9255C19.6386 19.0311 19.7023 19.127 19.7829 19.2077C19.8636 19.2883 19.9595 19.352 20.0651 19.395C20.1707 19.438 20.2838 19.4595 20.3979 19.4581H22.8732C22.9872 19.4595 23.1004 19.438 23.206 19.395C23.3116 19.352 23.4075 19.2883 23.4881 19.2077C23.5688 19.127 23.6325 19.0311 23.6755 18.9255C23.7185 18.8199 23.74 18.7068 23.7386 18.5928V16.1275C23.74 16.0134 23.7185 15.9003 23.6755 15.7947C23.6325 15.6891 23.5688 15.5932 23.4881 15.5125C23.4075 15.4319 23.3116 15.3682 23.206 15.3252C23.1004 15.2822 22.9872 15.2607 22.8732 15.2621V15.252ZM22.7827 18.0695C22.7827 18.1843 22.7371 18.2943 22.6559 18.3755C22.5748 18.4566 22.4647 18.5022 22.35 18.5022H20.9211C20.8072 18.4996 20.6986 18.4532 20.618 18.3726C20.5374 18.292 20.491 18.1835 20.4884 18.0695V16.6507C20.4884 16.5359 20.534 16.4259 20.6152 16.3447C20.6963 16.2636 20.8064 16.218 20.9211 16.218H22.35C22.4647 16.218 22.5748 16.2636 22.6559 16.3447C22.7371 16.4259 22.7827 16.5359 22.7827 16.6507V18.0695ZM14.6019 23.5234H12.1265C12.0125 23.522 11.8994 23.5435 11.7938 23.5865C11.6882 23.6295 11.5922 23.6932 11.5116 23.7738C11.431 23.8544 11.3673 23.9504 11.3243 24.056C11.2813 24.1616 11.2598 24.2747 11.2612 24.3887V26.8641C11.2598 26.9781 11.2813 27.0912 11.3243 27.1968C11.3673 27.3024 11.431 27.3984 11.5116 27.479C11.5922 27.5596 11.6882 27.6233 11.7938 27.6663C11.8994 27.7094 12.0125 27.7308 12.1265 27.7295H14.6019C14.7159 27.7308 14.829 27.7094 14.9346 27.6663C15.0402 27.6233 15.1362 27.5596 15.2168 27.479C15.2974 27.3984 15.3611 27.3024 15.4041 27.1968C15.4471 27.0912 15.4686 26.9781 15.4673 26.8641V24.3988C15.4686 24.2848 15.4471 24.1716 15.4041 24.066C15.3611 23.9604 15.2974 23.8645 15.2168 23.7839C15.1362 23.7032 15.0402 23.6396 14.9346 23.5965C14.829 23.5535 14.7159 23.5321 14.6019 23.5334V23.5234ZM14.5113 26.3408C14.5113 26.4556 14.4657 26.5657 14.3846 26.6468C14.3035 26.7279 14.1934 26.7735 14.0786 26.7735H12.6498C12.535 26.7735 12.425 26.7279 12.3438 26.6468C12.2627 26.5657 12.2171 26.4556 12.2171 26.3408V24.922C12.2171 24.8073 12.2627 24.6972 12.3438 24.6161C12.425 24.5349 12.535 24.4894 12.6498 24.4894H14.0686C14.1825 24.4919 14.2911 24.5383 14.3717 24.6189C14.4523 24.6995 14.4987 24.8081 14.5013 24.922L14.5113 26.3408ZM14.6019 23.5234H12.1265C12.0125 23.522 11.8994 23.5435 11.7938 23.5865C11.6882 23.6295 11.5922 23.6932 11.5116 23.7738C11.431 23.8544 11.3673 23.9504 11.3243 24.056C11.2813 24.1616 11.2598 24.2747 11.2612 24.3887V26.8641C11.2598 26.9781 11.2813 27.0912 11.3243 27.1968C11.3673 27.3024 11.431 27.3984 11.5116 27.479C11.5922 27.5596 11.6882 27.6233 11.7938 27.6663C11.8994 27.7094 12.0125 27.7308 12.1265 27.7295H14.6019C14.7159 27.7308 14.829 27.7094 14.9346 27.6663C15.0402 27.6233 15.1362 27.5596 15.2168 27.479C15.2974 27.3984 15.3611 27.3024 15.4041 27.1968C15.4471 27.0912 15.4686 26.9781 15.4673 26.8641V24.3988C15.4686 24.2848 15.4471 24.1716 15.4041 24.066C15.3611 23.9604 15.2974 23.8645 15.2168 23.7839C15.1362 23.7032 15.0402 23.6396 14.9346 23.5965C14.829 23.5535 14.7159 23.5321 14.6019 23.5334V23.5234ZM14.5113 26.3408C14.5113 26.4556 14.4657 26.5657 14.3846 26.6468C14.3035 26.7279 14.1934 26.7735 14.0786 26.7735H12.6498C12.535 26.7735 12.425 26.7279 12.3438 26.6468C12.2627 26.5657 12.2171 26.4556 12.2171 26.3408V24.922C12.2171 24.8073 12.2627 24.6972 12.3438 24.6161C12.425 24.5349 12.535 24.4894 12.6498 24.4894H14.0686C14.1825 24.4919 14.2911 24.5383 14.3717 24.6189C14.4523 24.6995 14.4987 24.8081 14.5013 24.922L14.5113 26.3408ZM22.8732 15.2721H20.3979C20.2838 15.2708 20.1707 15.2923 20.0651 15.3353C19.9595 15.3783 19.8636 15.442 19.7829 15.5226C19.7023 15.6032 19.6386 15.6992 19.5956 15.8048C19.5526 15.9104 19.5311 16.0235 19.5325 16.1375V18.6129C19.5311 18.7269 19.5526 18.84 19.5956 18.9456C19.6386 19.0512 19.7023 19.1472 19.7829 19.2278C19.8636 19.3084 19.9595 19.3721 20.0651 19.4151C20.1707 19.4581 20.2838 19.4796 20.3979 19.4782H22.8732C22.9872 19.4796 23.1004 19.4581 23.206 19.4151C23.3116 19.3721 23.4075 19.3084 23.4881 19.2278C23.5688 19.1472 23.6325 19.0512 23.6755 18.9456C23.7185 18.84 23.74 18.7269 23.7386 18.6129V16.1275C23.74 16.0134 23.7185 15.9003 23.6755 15.7947C23.6325 15.6891 23.5688 15.5932 23.4881 15.5125C23.4075 15.4319 23.3116 15.3682 23.206 15.3252C23.1004 15.2822 22.9872 15.2607 22.8732 15.2621V15.2721ZM22.7827 18.0695C22.7827 18.1843 22.7371 18.2943 22.6559 18.3755C22.5748 18.4566 22.4647 18.5022 22.35 18.5022H20.9211C20.8072 18.4996 20.6986 18.4532 20.618 18.3726C20.5374 18.292 20.491 18.1835 20.4884 18.0695V16.6507C20.4884 16.5359 20.534 16.4259 20.6152 16.3447C20.6963 16.2636 20.8064 16.218 20.9211 16.218H22.35C22.4647 16.218 22.5748 16.2636 22.6559 16.3447C22.7371 16.4259 22.7827 16.5359 22.7827 16.6507V18.0695ZM22.8732 15.252H20.3979C20.2838 15.2507 20.1707 15.2721 20.0651 15.3151C19.9595 15.3582 19.8636 15.4218 19.7829 15.5025C19.7023 15.5831 19.6386 15.679 19.5956 15.7846C19.5526 15.8902 19.5311 16.0034 19.5325 16.1174V18.5928C19.5311 18.7068 19.5526 18.8199 19.5956 18.9255C19.6386 19.0311 19.7023 19.127 19.7829 19.2077C19.8636 19.2883 19.9595 19.352 20.0651 19.395C20.1707 19.438 20.2838 19.4595 20.3979 19.4581H22.8732C22.9872 19.4595 23.1004 19.438 23.206 19.395C23.3116 19.352 23.4075 19.2883 23.4881 19.2077C23.5688 19.127 23.6325 19.0311 23.6755 18.9255C23.7185 18.8199 23.74 18.7068 23.7386 18.5928V16.1275C23.74 16.0134 23.7185 15.9003 23.6755 15.7947C23.6325 15.6891 23.5688 15.5932 23.4881 15.5125C23.4075 15.4319 23.3116 15.3682 23.206 15.3252C23.1004 15.2822 22.9872 15.2607 22.8732 15.2621V15.252ZM22.7827 18.0695C22.7827 18.1843 22.7371 18.2943 22.6559 18.3755C22.5748 18.4566 22.4647 18.5022 22.35 18.5022H20.9211C20.8072 18.4996 20.6986 18.4532 20.618 18.3726C20.5374 18.292 20.491 18.1835 20.4884 18.0695V16.6507C20.4884 16.5359 20.534 16.4259 20.6152 16.3447C20.6963 16.2636 20.8064 16.218 20.9211 16.218H22.35C22.4647 16.218 22.5748 16.2636 22.6559 16.3447C22.7371 16.4259 22.7827 16.5359 22.7827 16.6507V18.0695ZM14.6019 23.5234H12.1265C12.0125 23.522 11.8994 23.5435 11.7938 23.5865C11.6882 23.6295 11.5922 23.6932 11.5116 23.7738C11.431 23.8544 11.3673 23.9504 11.3243 24.056C11.2813 24.1616 11.2598 24.2747 11.2612 24.3887V26.8641C11.2598 26.9781 11.2813 27.0912 11.3243 27.1968C11.3673 27.3024 11.431 27.3984 11.5116 27.479C11.5922 27.5596 11.6882 27.6233 11.7938 27.6663C11.8994 27.7094 12.0125 27.7308 12.1265 27.7295H14.6019C14.7159 27.7308 14.829 27.7094 14.9346 27.6663C15.0402 27.6233 15.1362 27.5596 15.2168 27.479C15.2974 27.3984 15.3611 27.3024 15.4041 27.1968C15.4471 27.0912 15.4686 26.9781 15.4673 26.8641V24.3988C15.4686 24.2848 15.4471 24.1716 15.4041 24.066C15.3611 23.9604 15.2974 23.8645 15.2168 23.7839C15.1362 23.7032 15.0402 23.6396 14.9346 23.5965C14.829 23.5535 14.7159 23.5321 14.6019 23.5334V23.5234ZM14.5113 26.3408C14.5113 26.4556 14.4657 26.5657 14.3846 26.6468C14.3035 26.7279 14.1934 26.7735 14.0786 26.7735H12.6498C12.535 26.7735 12.425 26.7279 12.3438 26.6468C12.2627 26.5657 12.2171 26.4556 12.2171 26.3408V24.922C12.2171 24.8073 12.2627 24.6972 12.3438 24.6161C12.425 24.5349 12.535 24.4894 12.6498 24.4894H14.0686C14.1825 24.4919 14.2911 24.5383 14.3717 24.6189C14.4523 24.6995 14.4987 24.8081 14.5013 24.922L14.5113 26.3408ZM14.6019 23.5234H12.1265C12.0125 23.522 11.8994 23.5435 11.7938 23.5865C11.6882 23.6295 11.5922 23.6932 11.5116 23.7738C11.431 23.8544 11.3673 23.9504 11.3243 24.056C11.2813 24.1616 11.2598 24.2747 11.2612 24.3887V26.8641C11.2598 26.9781 11.2813 27.0912 11.3243 27.1968C11.3673 27.3024 11.431 27.3984 11.5116 27.479C11.5922 27.5596 11.6882 27.6233 11.7938 27.6663C11.8994 27.7094 12.0125 27.7308 12.1265 27.7295H14.6019C14.7159 27.7308 14.829 27.7094 14.9346 27.6663C15.0402 27.6233 15.1362 27.5596 15.2168 27.479C15.2974 27.3984 15.3611 27.3024 15.4041 27.1968C15.4471 27.0912 15.4686 26.9781 15.4673 26.8641V24.3988C15.4686 24.2848 15.4471 24.1716 15.4041 24.066C15.3611 23.9604 15.2974 23.8645 15.2168 23.7839C15.1362 23.7032 15.0402 23.6396 14.9346 23.5965C14.829 23.5535 14.7159 23.5321 14.6019 23.5334V23.5234ZM14.5113 26.3408C14.5113 26.4556 14.4657 26.5657 14.3846 26.6468C14.3035 26.7279 14.1934 26.7735 14.0786 26.7735H12.6498C12.535 26.7735 12.425 26.7279 12.3438 26.6468C12.2627 26.5657 12.2171 26.4556 12.2171 26.3408V24.922C12.2171 24.8073 12.2627 24.6972 12.3438 24.6161C12.425 24.5349 12.535 24.4894 12.6498 24.4894H14.0686C14.1825 24.4919 14.2911 24.5383 14.3717 24.6189C14.4523 24.6995 14.4987 24.8081 14.5013 24.922L14.5113 26.3408ZM22.8732 15.2721H20.3979C20.2838 15.2708 20.1707 15.2923 20.0651 15.3353C19.9595 15.3783 19.8636 15.442 19.7829 15.5226C19.7023 15.6032 19.6386 15.6992 19.5956 15.8048C19.5526 15.9104 19.5311 16.0235 19.5325 16.1375V18.6129C19.5311 18.7269 19.5526 18.84 19.5956 18.9456C19.6386 19.0512 19.7023 19.1472 19.7829 19.2278C19.8636 19.3084 19.9595 19.3721 20.0651 19.4151C20.1707 19.4581 20.2838 19.4796 20.3979 19.4782H22.8732C22.9872 19.4796 23.1004 19.4581 23.206 19.4151C23.3116 19.3721 23.4075 19.3084 23.4881 19.2278C23.5688 19.1472 23.6325 19.0512 23.6755 18.9456C23.7185 18.84 23.74 18.7269 23.7386 18.6129V16.1275C23.74 16.0134 23.7185 15.9003 23.6755 15.7947C23.6325 15.6891 23.5688 15.5932 23.4881 15.5125C23.4075 15.4319 23.3116 15.3682 23.206 15.3252C23.1004 15.2822 22.9872 15.2607 22.8732 15.2621V15.2721ZM22.7827 18.0695C22.7827 18.1843 22.7371 18.2943 22.6559 18.3755C22.5748 18.4566 22.4647 18.5022 22.35 18.5022H20.9211C20.8072 18.4996 20.6986 18.4532 20.618 18.3726C20.5374 18.292 20.491 18.1835 20.4884 18.0695V16.6507C20.4884 16.5359 20.534 16.4259 20.6152 16.3447C20.6963 16.2636 20.8064 16.218 20.9211 16.218H22.35C22.4647 16.218 22.5748 16.2636 22.6559 16.3447C22.7371 16.4259 22.7827 16.5359 22.7827 16.6507V18.0695ZM22.8732 15.252H20.3979C20.2838 15.2507 20.1707 15.2721 20.0651 15.3151C19.9595 15.3582 19.8636 15.4218 19.7829 15.5025C19.7023 15.5831 19.6386 15.679 19.5956 15.7846C19.5526 15.8902 19.5311 16.0034 19.5325 16.1174V18.5928C19.5311 18.7068 19.5526 18.8199 19.5956 18.9255C19.6386 19.0311 19.7023 19.127 19.7829 19.2077C19.8636 19.2883 19.9595 19.352 20.0651 19.395C20.1707 19.438 20.2838 19.4595 20.3979 19.4581H22.8732C22.9872 19.4595 23.1004 19.438 23.206 19.395C23.3116 19.352 23.4075 19.2883 23.4881 19.2077C23.5688 19.127 23.6325 19.0311 23.6755 18.9255C23.7185 18.8199 23.74 18.7068 23.7386 18.5928V16.1275C23.74 16.0134 23.7185 15.9003 23.6755 15.7947C23.6325 15.6891 23.5688 15.5932 23.4881 15.5125C23.4075 15.4319 23.3116 15.3682 23.206 15.3252C23.1004 15.2822 22.9872 15.2607 22.8732 15.2621V15.252ZM22.7827 18.0695C22.7827 18.1843 22.7371 18.2943 22.6559 18.3755C22.5748 18.4566 22.4647 18.5022 22.35 18.5022H20.9211C20.8072 18.4996 20.6986 18.4532 20.618 18.3726C20.5374 18.292 20.491 18.1835 20.4884 18.0695V16.6507C20.4884 16.5359 20.534 16.4259 20.6152 16.3447C20.6963 16.2636 20.8064 16.218 20.9211 16.218H22.35C22.4647 16.218 22.5748 16.2636 22.6559 16.3447C22.7371 16.4259 22.7827 16.5359 22.7827 16.6507V18.0695ZM14.6019 23.5234H12.1265C12.0125 23.522 11.8994 23.5435 11.7938 23.5865C11.6882 23.6295 11.5922 23.6932 11.5116 23.7738C11.431 23.8544 11.3673 23.9504 11.3243 24.056C11.2813 24.1616 11.2598 24.2747 11.2612 24.3887V26.8641C11.2598 26.9781 11.2813 27.0912 11.3243 27.1968C11.3673 27.3024 11.431 27.3984 11.5116 27.479C11.5922 27.5596 11.6882 27.6233 11.7938 27.6663C11.8994 27.7094 12.0125 27.7308 12.1265 27.7295H14.6019C14.7159 27.7308 14.829 27.7094 14.9346 27.6663C15.0402 27.6233 15.1362 27.5596 15.2168 27.479C15.2974 27.3984 15.3611 27.3024 15.4041 27.1968C15.4471 27.0912 15.4686 26.9781 15.4673 26.8641V24.3988C15.4686 24.2848 15.4471 24.1716 15.4041 24.066C15.3611 23.9604 15.2974 23.8645 15.2168 23.7839C15.1362 23.7032 15.0402 23.6396 14.9346 23.5965C14.829 23.5535 14.7159 23.5321 14.6019 23.5334V23.5234ZM14.5113 26.3408C14.5113 26.4556 14.4657 26.5657 14.3846 26.6468C14.3035 26.7279 14.1934 26.7735 14.0786 26.7735H12.6498C12.535 26.7735 12.425 26.7279 12.3438 26.6468C12.2627 26.5657 12.2171 26.4556 12.2171 26.3408V24.922C12.2171 24.8073 12.2627 24.6972 12.3438 24.6161C12.425 24.5349 12.535 24.4894 12.6498 24.4894H14.0686C14.1825 24.4919 14.2911 24.5383 14.3717 24.6189C14.4523 24.6995 14.4987 24.8081 14.5013 24.922L14.5113 26.3408ZM14.6019 23.5234H12.1265C12.0125 23.522 11.8994 23.5435 11.7938 23.5865C11.6882 23.6295 11.5922 23.6932 11.5116 23.7738C11.431 23.8544 11.3673 23.9504 11.3243 24.056C11.2813 24.1616 11.2598 24.2747 11.2612 24.3887V26.8641C11.2598 26.9781 11.2813 27.0912 11.3243 27.1968C11.3673 27.3024 11.431 27.3984 11.5116 27.479C11.5922 27.5596 11.6882 27.6233 11.7938 27.6663C11.8994 27.7094 12.0125 27.7308 12.1265 27.7295H14.6019C14.7159 27.7308 14.829 27.7094 14.9346 27.6663C15.0402 27.6233 15.1362 27.5596 15.2168 27.479C15.2974 27.3984 15.3611 27.3024 15.4041 27.1968C15.4471 27.0912 15.4686 26.9781 15.4673 26.8641V24.3988C15.4686 24.2848 15.4471 24.1716 15.4041 24.066C15.3611 23.9604 15.2974 23.8645 15.2168 23.7839C15.1362 23.7032 15.0402 23.6396 14.9346 23.5965C14.829 23.5535 14.7159 23.5321 14.6019 23.5334V23.5234ZM14.5113 26.3408C14.5113 26.4556 14.4657 26.5657 14.3846 26.6468C14.3035 26.7279 14.1934 26.7735 14.0786 26.7735H12.6498C12.535 26.7735 12.425 26.7279 12.3438 26.6468C12.2627 26.5657 12.2171 26.4556 12.2171 26.3408V24.922C12.2171 24.8073 12.2627 24.6972 12.3438 24.6161C12.425 24.5349 12.535 24.4894 12.6498 24.4894H14.0686C14.1825 24.4919 14.2911 24.5383 14.3717 24.6189C14.4523 24.6995 14.4987 24.8081 14.5013 24.922L14.5113 26.3408ZM14.6019 15.2721H12.1265C12.0125 15.2708 11.8994 15.2923 11.7938 15.3353C11.6882 15.3783 11.5922 15.442 11.5116 15.5226C11.431 15.6032 11.3673 15.6992 11.3243 15.8048C11.2813 15.9104 11.2598 16.0235 11.2612 16.1375V18.6129C11.2598 18.7269 11.2813 18.84 11.3243 18.9456C11.3673 19.0512 11.431 19.1472 11.5116 19.2278C11.5922 19.3084 11.6882 19.3721 11.7938 19.4151C11.8994 19.4581 12.0125 19.4796 12.1265 19.4782H14.6019C14.7159 19.4796 14.829 19.4581 14.9346 19.4151C15.0402 19.3721 15.1362 19.3084 15.2168 19.2278C15.2974 19.1472 15.3611 19.0512 15.4041 18.9456C15.4471 18.84 15.4686 18.7269 15.4673 18.6129V16.1275C15.4686 16.0134 15.4471 15.9003 15.4041 15.7947C15.3611 15.6891 15.2974 15.5932 15.2168 15.5125C15.1362 15.4319 15.0402 15.3682 14.9346 15.3252C14.829 15.2822 14.7159 15.2607 14.6019 15.2621V15.2721ZM14.5113 18.0695C14.5088 18.1835 14.4624 18.292 14.3818 18.3726C14.3012 18.4532 14.1926 18.4996 14.0786 18.5022H12.6498C12.535 18.5022 12.425 18.4566 12.3438 18.3755C12.2627 18.2943 12.2171 18.1843 12.2171 18.0695V16.6507C12.2171 16.5359 12.2627 16.4259 12.3438 16.3447C12.425 16.2636 12.535 16.218 12.6498 16.218H14.0686C14.1833 16.218 14.2934 16.2636 14.3745 16.3447C14.4557 16.4259 14.5013 16.5359 14.5013 16.6507L14.5113 18.0695ZM22.8732 15.252H20.3979C20.2838 15.2507 20.1707 15.2721 20.0651 15.3151C19.9595 15.3582 19.8636 15.4218 19.7829 15.5025C19.7023 15.5831 19.6386 15.679 19.5956 15.7846C19.5526 15.8902 19.5311 16.0034 19.5325 16.1174V18.5928C19.5311 18.7068 19.5526 18.8199 19.5956 18.9255C19.6386 19.0311 19.7023 19.127 19.7829 19.2077C19.8636 19.2883 19.9595 19.352 20.0651 19.395C20.1707 19.438 20.2838 19.4595 20.3979 19.4581H22.8732C22.9872 19.4595 23.1004 19.438 23.206 19.395C23.3116 19.352 23.4075 19.2883 23.4881 19.2077C23.5688 19.127 23.6325 19.0311 23.6755 18.9255C23.7185 18.8199 23.74 18.7068 23.7386 18.5928V16.1275C23.74 16.0134 23.7185 15.9003 23.6755 15.7947C23.6325 15.6891 23.5688 15.5932 23.4881 15.5125C23.4075 15.4319 23.3116 15.3682 23.206 15.3252C23.1004 15.2822 22.9872 15.2607 22.8732 15.2621V15.252ZM22.7827 18.0695C22.7827 18.1843 22.7371 18.2943 22.6559 18.3755C22.5748 18.4566 22.4647 18.5022 22.35 18.5022H20.9211C20.8072 18.4996 20.6986 18.4532 20.618 18.3726C20.5374 18.292 20.491 18.1835 20.4884 18.0695V16.6507C20.4884 16.5359 20.534 16.4259 20.6152 16.3447C20.6963 16.2636 20.8064 16.218 20.9211 16.218H22.35C22.4647 16.218 22.5748 16.2636 22.6559 16.3447C22.7371 16.4259 22.7827 16.5359 22.7827 16.6507V18.0695ZM22.8732 15.252H20.3979C20.2838 15.2507 20.1707 15.2721 20.0651 15.3151C19.9595 15.3582 19.8636 15.4218 19.7829 15.5025C19.7023 15.5831 19.6386 15.679 19.5956 15.7846C19.5526 15.8902 19.5311 16.0034 19.5325 16.1174V18.5928C19.5311 18.7068 19.5526 18.8199 19.5956 18.9255C19.6386 19.0311 19.7023 19.127 19.7829 19.2077C19.8636 19.2883 19.9595 19.352 20.0651 19.395C20.1707 19.438 20.2838 19.4595 20.3979 19.4581H22.8732C22.9872 19.4595 23.1004 19.438 23.206 19.395C23.3116 19.352 23.4075 19.2883 23.4881 19.2077C23.5688 19.127 23.6325 19.0311 23.6755 18.9255C23.7185 18.8199 23.74 18.7068 23.7386 18.5928V16.1275C23.74 16.0134 23.7185 15.9003 23.6755 15.7947C23.6325 15.6891 23.5688 15.5932 23.4881 15.5125C23.4075 15.4319 23.3116 15.3682 23.206 15.3252C23.1004 15.2822 22.9872 15.2607 22.8732 15.2621V15.252ZM22.7827 18.0695C22.7827 18.1843 22.7371 18.2943 22.6559 18.3755C22.5748 18.4566 22.4647 18.5022 22.35 18.5022H20.9211C20.8072 18.4996 20.6986 18.4532 20.618 18.3726C20.5374 18.292 20.491 18.1835 20.4884 18.0695V16.6507C20.4884 16.5359 20.534 16.4259 20.6152 16.3447C20.6963 16.2636 20.8064 16.218 20.9211 16.218H22.35C22.4647 16.218 22.5748 16.2636 22.6559 16.3447C22.7371 16.4259 22.7827 16.5359 22.7827 16.6507V18.0695ZM14.6019 23.5234H12.1265C12.0125 23.522 11.8994 23.5435 11.7938 23.5865C11.6882 23.6295 11.5922 23.6932 11.5116 23.7738C11.431 23.8544 11.3673 23.9504 11.3243 24.056C11.2813 24.1616 11.2598 24.2747 11.2612 24.3887V26.8641C11.2598 26.9781 11.2813 27.0912 11.3243 27.1968C11.3673 27.3024 11.431 27.3984 11.5116 27.479C11.5922 27.5596 11.6882 27.6233 11.7938 27.6663C11.8994 27.7094 12.0125 27.7308 12.1265 27.7295H14.6019C14.7159 27.7308 14.829 27.7094 14.9346 27.6663C15.0402 27.6233 15.1362 27.5596 15.2168 27.479C15.2974 27.3984 15.3611 27.3024 15.4041 27.1968C15.4471 27.0912 15.4686 26.9781 15.4673 26.8641V24.3988C15.4686 24.2848 15.4471 24.1716 15.4041 24.066C15.3611 23.9604 15.2974 23.8645 15.2168 23.7839C15.1362 23.7032 15.0402 23.6396 14.9346 23.5965C14.829 23.5535 14.7159 23.5321 14.6019 23.5334V23.5234ZM14.5113 26.3408C14.5113 26.4556 14.4657 26.5657 14.3846 26.6468C14.3035 26.7279 14.1934 26.7735 14.0786 26.7735H12.6498C12.535 26.7735 12.425 26.7279 12.3438 26.6468C12.2627 26.5657 12.2171 26.4556 12.2171 26.3408V24.922C12.2171 24.8073 12.2627 24.6972 12.3438 24.6161C12.425 24.5349 12.535 24.4894 12.6498 24.4894H14.0686C14.1825 24.4919 14.2911 24.5383 14.3717 24.6189C14.4523 24.6995 14.4987 24.8081 14.5013 24.922L14.5113 26.3408ZM14.6019 23.5234H12.1265C12.0125 23.522 11.8994 23.5435 11.7938 23.5865C11.6882 23.6295 11.5922 23.6932 11.5116 23.7738C11.431 23.8544 11.3673 23.9504 11.3243 24.056C11.2813 24.1616 11.2598 24.2747 11.2612 24.3887V26.8641C11.2598 26.9781 11.2813 27.0912 11.3243 27.1968C11.3673 27.3024 11.431 27.3984 11.5116 27.479C11.5922 27.5596 11.6882 27.6233 11.7938 27.6663C11.8994 27.7094 12.0125 27.7308 12.1265 27.7295H14.6019C14.7159 27.7308 14.829 27.7094 14.9346 27.6663C15.0402 27.6233 15.1362 27.5596 15.2168 27.479C15.2974 27.3984 15.3611 27.3024 15.4041 27.1968C15.4471 27.0912 15.4686 26.9781 15.4673 26.8641V24.3988C15.4686 24.2848 15.4471 24.1716 15.4041 24.066C15.3611 23.9604 15.2974 23.8645 15.2168 23.7839C15.1362 23.7032 15.0402 23.6396 14.9346 23.5965C14.829 23.5535 14.7159 23.5321 14.6019 23.5334V23.5234ZM14.5113 26.3408C14.5113 26.4556 14.4657 26.5657 14.3846 26.6468C14.3035 26.7279 14.1934 26.7735 14.0786 26.7735H12.6498C12.535 26.7735 12.425 26.7279 12.3438 26.6468C12.2627 26.5657 12.2171 26.4556 12.2171 26.3408V24.922C12.2171 24.8073 12.2627 24.6972 12.3438 24.6161C12.425 24.5349 12.535 24.4894 12.6498 24.4894H14.0686C14.1825 24.4919 14.2911 24.5383 14.3717 24.6189C14.4523 24.6995 14.4987 24.8081 14.5013 24.922L14.5113 26.3408ZM22.8732 15.2721H20.3979C20.2838 15.2708 20.1707 15.2923 20.0651 15.3353C19.9595 15.3783 19.8636 15.442 19.7829 15.5226C19.7023 15.6032 19.6386 15.6992 19.5956 15.8048C19.5526 15.9104 19.5311 16.0235 19.5325 16.1375V18.6129C19.5311 18.7269 19.5526 18.84 19.5956 18.9456C19.6386 19.0512 19.7023 19.1472 19.7829 19.2278C19.8636 19.3084 19.9595 19.3721 20.0651 19.4151C20.1707 19.4581 20.2838 19.4796 20.3979 19.4782H22.8732C22.9872 19.4796 23.1004 19.4581 23.206 19.4151C23.3116 19.3721 23.4075 19.3084 23.4881 19.2278C23.5688 19.1472 23.6325 19.0512 23.6755 18.9456C23.7185 18.84 23.74 18.7269 23.7386 18.6129V16.1275C23.74 16.0134 23.7185 15.9003 23.6755 15.7947C23.6325 15.6891 23.5688 15.5932 23.4881 15.5125C23.4075 15.4319 23.3116 15.3682 23.206 15.3252C23.1004 15.2822 22.9872 15.2607 22.8732 15.2621V15.2721ZM22.7827 18.0695C22.7827 18.1843 22.7371 18.2943 22.6559 18.3755C22.5748 18.4566 22.4647 18.5022 22.35 18.5022H20.9211C20.8072 18.4996 20.6986 18.4532 20.618 18.3726C20.5374 18.292 20.491 18.1835 20.4884 18.0695V16.6507C20.4884 16.5359 20.534 16.4259 20.6152 16.3447C20.6963 16.2636 20.8064 16.218 20.9211 16.218H22.35C22.4647 16.218 22.5748 16.2636 22.6559 16.3447C22.7371 16.4259 22.7827 16.5359 22.7827 16.6507V18.0695ZM22.8732 15.252H20.3979C20.2838 15.2507 20.1707 15.2721 20.0651 15.3151C19.9595 15.3582 19.8636 15.4218 19.7829 15.5025C19.7023 15.5831 19.6386 15.679 19.5956 15.7846C19.5526 15.8902 19.5311 16.0034 19.5325 16.1174V18.5928C19.5311 18.7068 19.5526 18.8199 19.5956 18.9255C19.6386 19.0311 19.7023 19.127 19.7829 19.2077C19.8636 19.2883 19.9595 19.352 20.0651 19.395C20.1707 19.438 20.2838 19.4595 20.3979 19.4581H22.8732C22.9872 19.4595 23.1004 19.438 23.206 19.395C23.3116 19.352 23.4075 19.2883 23.4881 19.2077C23.5688 19.127 23.6325 19.0311 23.6755 18.9255C23.7185 18.8199 23.74 18.7068 23.7386 18.5928V16.1275C23.74 16.0134 23.7185 15.9003 23.6755 15.7947C23.6325 15.6891 23.5688 15.5932 23.4881 15.5125C23.4075 15.4319 23.3116 15.3682 23.206 15.3252C23.1004 15.2822 22.9872 15.2607 22.8732 15.2621V15.252ZM22.7827 18.0695C22.7827 18.1843 22.7371 18.2943 22.6559 18.3755C22.5748 18.4566 22.4647 18.5022 22.35 18.5022H20.9211C20.8072 18.4996 20.6986 18.4532 20.618 18.3726C20.5374 18.292 20.491 18.1835 20.4884 18.0695V16.6507C20.4884 16.5359 20.534 16.4259 20.6152 16.3447C20.6963 16.2636 20.8064 16.218 20.9211 16.218H22.35C22.4647 16.218 22.5748 16.2636 22.6559 16.3447C22.7371 16.4259 22.7827 16.5359 22.7827 16.6507V18.0695ZM14.6019 23.5234H12.1265C12.0125 23.522 11.8994 23.5435 11.7938 23.5865C11.6882 23.6295 11.5922 23.6932 11.5116 23.7738C11.431 23.8544 11.3673 23.9504 11.3243 24.056C11.2813 24.1616 11.2598 24.2747 11.2612 24.3887V26.8641C11.2598 26.9781 11.2813 27.0912 11.3243 27.1968C11.3673 27.3024 11.431 27.3984 11.5116 27.479C11.5922 27.5596 11.6882 27.6233 11.7938 27.6663C11.8994 27.7094 12.0125 27.7308 12.1265 27.7295H14.6019C14.7159 27.7308 14.829 27.7094 14.9346 27.6663C15.0402 27.6233 15.1362 27.5596 15.2168 27.479C15.2974 27.3984 15.3611 27.3024 15.4041 27.1968C15.4471 27.0912 15.4686 26.9781 15.4673 26.8641V24.3988C15.4686 24.2848 15.4471 24.1716 15.4041 24.066C15.3611 23.9604 15.2974 23.8645 15.2168 23.7839C15.1362 23.7032 15.0402 23.6396 14.9346 23.5965C14.829 23.5535 14.7159 23.5321 14.6019 23.5334V23.5234ZM14.5113 26.3408C14.5113 26.4556 14.4657 26.5657 14.3846 26.6468C14.3035 26.7279 14.1934 26.7735 14.0786 26.7735H12.6498C12.535 26.7735 12.425 26.7279 12.3438 26.6468C12.2627 26.5657 12.2171 26.4556 12.2171 26.3408V24.922C12.2171 24.8073 12.2627 24.6972 12.3438 24.6161C12.425 24.5349 12.535 24.4894 12.6498 24.4894H14.0686C14.1825 24.4919 14.2911 24.5383 14.3717 24.6189C14.4523 24.6995 14.4987 24.8081 14.5013 24.922L14.5113 26.3408ZM14.6019 23.5234H12.1265C12.0125 23.522 11.8994 23.5435 11.7938 23.5865C11.6882 23.6295 11.5922 23.6932 11.5116 23.7738C11.431 23.8544 11.3673 23.9504 11.3243 24.056C11.2813 24.1616 11.2598 24.2747 11.2612 24.3887V26.8641C11.2598 26.9781 11.2813 27.0912 11.3243 27.1968C11.3673 27.3024 11.431 27.3984 11.5116 27.479C11.5922 27.5596 11.6882 27.6233 11.7938 27.6663C11.8994 27.7094 12.0125 27.7308 12.1265 27.7295H14.6019C14.7159 27.7308 14.829 27.7094 14.9346 27.6663C15.0402 27.6233 15.1362 27.5596 15.2168 27.479C15.2974 27.3984 15.3611 27.3024 15.4041 27.1968C15.4471 27.0912 15.4686 26.9781 15.4673 26.8641V24.3988C15.4686 24.2848 15.4471 24.1716 15.4041 24.066C15.3611 23.9604 15.2974 23.8645 15.2168 23.7839C15.1362 23.7032 15.0402 23.6396 14.9346 23.5965C14.829 23.5535 14.7159 23.5321 14.6019 23.5334V23.5234ZM14.5113 26.3408C14.5113 26.4556 14.4657 26.5657 14.3846 26.6468C14.3035 26.7279 14.1934 26.7735 14.0786 26.7735H12.6498C12.535 26.7735 12.425 26.7279 12.3438 26.6468C12.2627 26.5657 12.2171 26.4556 12.2171 26.3408V24.922C12.2171 24.8073 12.2627 24.6972 12.3438 24.6161C12.425 24.5349 12.535 24.4894 12.6498 24.4894H14.0686C14.1825 24.4919 14.2911 24.5383 14.3717 24.6189C14.4523 24.6995 14.4987 24.8081 14.5013 24.922L14.5113 26.3408ZM22.8732 15.2721H20.3979C20.2838 15.2708 20.1707 15.2923 20.0651 15.3353C19.9595 15.3783 19.8636 15.442 19.7829 15.5226C19.7023 15.6032 19.6386 15.6992 19.5956 15.8048C19.5526 15.9104 19.5311 16.0235 19.5325 16.1375V18.6129C19.5311 18.7269 19.5526 18.84 19.5956 18.9456C19.6386 19.0512 19.7023 19.1472 19.7829 19.2278C19.8636 19.3084 19.9595 19.3721 20.0651 19.4151C20.1707 19.4581 20.2838 19.4796 20.3979 19.4782H22.8732C22.9872 19.4796 23.1004 19.4581 23.206 19.4151C23.3116 19.3721 23.4075 19.3084 23.4881 19.2278C23.5688 19.1472 23.6325 19.0512 23.6755 18.9456C23.7185 18.84 23.74 18.7269 23.7386 18.6129V16.1275C23.74 16.0134 23.7185 15.9003 23.6755 15.7947C23.6325 15.6891 23.5688 15.5932 23.4881 15.5125C23.4075 15.4319 23.3116 15.3682 23.206 15.3252C23.1004 15.2822 22.9872 15.2607 22.8732 15.2621V15.2721ZM22.7827 18.0695C22.7827 18.1843 22.7371 18.2943 22.6559 18.3755C22.5748 18.4566 22.4647 18.5022 22.35 18.5022H20.9211C20.8072 18.4996 20.6986 18.4532 20.618 18.3726C20.5374 18.292 20.491 18.1835 20.4884 18.0695V16.6507C20.4884 16.5359 20.534 16.4259 20.6152 16.3447C20.6963 16.2636 20.8064 16.218 20.9211 16.218H22.35C22.4647 16.218 22.5748 16.2636 22.6559 16.3447C22.7371 16.4259 22.7827 16.5359 22.7827 16.6507V18.0695ZM22.8732 15.252H20.3979C20.2838 15.2507 20.1707 15.2721 20.0651 15.3151C19.9595 15.3582 19.8636 15.4218 19.7829 15.5025C19.7023 15.5831 19.6386 15.679 19.5956 15.7846C19.5526 15.8902 19.5311 16.0034 19.5325 16.1174V18.5928C19.5311 18.7068 19.5526 18.8199 19.5956 18.9255C19.6386 19.0311 19.7023 19.127 19.7829 19.2077C19.8636 19.2883 19.9595 19.352 20.0651 19.395C20.1707 19.438 20.2838 19.4595 20.3979 19.4581H22.8732C22.9872 19.4595 23.1004 19.438 23.206 19.395C23.3116 19.352 23.4075 19.2883 23.4881 19.2077C23.5688 19.127 23.6325 19.0311 23.6755 18.9255C23.7185 18.8199 23.74 18.7068 23.7386 18.5928V16.1275C23.74 16.0134 23.7185 15.9003 23.6755 15.7947C23.6325 15.6891 23.5688 15.5932 23.4881 15.5125C23.4075 15.4319 23.3116 15.3682 23.206 15.3252C23.1004 15.2822 22.9872 15.2607 22.8732 15.2621V15.252ZM22.7827 18.0695C22.7827 18.1843 22.7371 18.2943 22.6559 18.3755C22.5748 18.4566 22.4647 18.5022 22.35 18.5022H20.9211C20.8072 18.4996 20.6986 18.4532 20.618 18.3726C20.5374 18.292 20.491 18.1835 20.4884 18.0695V16.6507C20.4884 16.5359 20.534 16.4259 20.6152 16.3447C20.6963 16.2636 20.8064 16.218 20.9211 16.218H22.35C22.4647 16.218 22.5748 16.2636 22.6559 16.3447C22.7371 16.4259 22.7827 16.5359 22.7827 16.6507V18.0695ZM14.6019 23.5234H12.1265C12.0125 23.522 11.8994 23.5435 11.7938 23.5865C11.6882 23.6295 11.5922 23.6932 11.5116 23.7738C11.431 23.8544 11.3673 23.9504 11.3243 24.056C11.2813 24.1616 11.2598 24.2747 11.2612 24.3887V26.8641C11.2598 26.9781 11.2813 27.0912 11.3243 27.1968C11.3673 27.3024 11.431 27.3984 11.5116 27.479C11.5922 27.5596 11.6882 27.6233 11.7938 27.6663C11.8994 27.7094 12.0125 27.7308 12.1265 27.7295H14.6019C14.7159 27.7308 14.829 27.7094 14.9346 27.6663C15.0402 27.6233 15.1362 27.5596 15.2168 27.479C15.2974 27.3984 15.3611 27.3024 15.4041 27.1968C15.4471 27.0912 15.4686 26.9781 15.4673 26.8641V24.3988C15.4686 24.2848 15.4471 24.1716 15.4041 24.066C15.3611 23.9604 15.2974 23.8645 15.2168 23.7839C15.1362 23.7032 15.0402 23.6396 14.9346 23.5965C14.829 23.5535 14.7159 23.5321 14.6019 23.5334V23.5234ZM14.5113 26.3408C14.5113 26.4556 14.4657 26.5657 14.3846 26.6468C14.3035 26.7279 14.1934 26.7735 14.0786 26.7735H12.6498C12.535 26.7735 12.425 26.7279 12.3438 26.6468C12.2627 26.5657 12.2171 26.4556 12.2171 26.3408V24.922C12.2171 24.8073 12.2627 24.6972 12.3438 24.6161C12.425 24.5349 12.535 24.4894 12.6498 24.4894H14.0686C14.1825 24.4919 14.2911 24.5383 14.3717 24.6189C14.4523 24.6995 14.4987 24.8081 14.5013 24.922L14.5113 26.3408ZM22.8732 15.2721H20.3979C20.2838 15.2708 20.1707 15.2923 20.0651 15.3353C19.9595 15.3783 19.8636 15.442 19.7829 15.5226C19.7023 15.6032 19.6386 15.6992 19.5956 15.8048C19.5526 15.9104 19.5311 16.0235 19.5325 16.1375V18.6129C19.5311 18.7269 19.5526 18.84 19.5956 18.9456C19.6386 19.0512 19.7023 19.1472 19.7829 19.2278C19.8636 19.3084 19.9595 19.3721 20.0651 19.4151C20.1707 19.4581 20.2838 19.4796 20.3979 19.4782H22.8732C22.9872 19.4796 23.1004 19.4581 23.206 19.4151C23.3116 19.3721 23.4075 19.3084 23.4881 19.2278C23.5688 19.1472 23.6325 19.0512 23.6755 18.9456C23.7185 18.84 23.74 18.7269 23.7386 18.6129V16.1275C23.74 16.0134 23.7185 15.9003 23.6755 15.7947C23.6325 15.6891 23.5688 15.5932 23.4881 15.5125C23.4075 15.4319 23.3116 15.3682 23.206 15.3252C23.1004 15.2822 22.9872 15.2607 22.8732 15.2621V15.2721ZM22.7827 18.0695C22.7827 18.1843 22.7371 18.2943 22.6559 18.3755C22.5748 18.4566 22.4647 18.5022 22.35 18.5022H20.9211C20.8072 18.4996 20.6986 18.4532 20.618 18.3726C20.5374 18.292 20.491 18.1835 20.4884 18.0695V16.6507C20.4884 16.5359 20.534 16.4259 20.6152 16.3447C20.6963 16.2636 20.8064 16.218 20.9211 16.218H22.35C22.4647 16.218 22.5748 16.2636 22.6559 16.3447C22.7371 16.4259 22.7827 16.5359 22.7827 16.6507V18.0695ZM22.8732 15.252H20.3979C20.2838 15.2507 20.1707 15.2721 20.0651 15.3151C19.9595 15.3582 19.8636 15.4218 19.7829 15.5025C19.7023 15.5831 19.6386 15.679 19.5956 15.7846C19.5526 15.8902 19.5311 16.0034 19.5325 16.1174V18.5928C19.5311 18.7068 19.5526 18.8199 19.5956 18.9255C19.6386 19.0311 19.7023 19.127 19.7829 19.2077C19.8636 19.2883 19.9595 19.352 20.0651 19.395C20.1707 19.438 20.2838 19.4595 20.3979 19.4581H22.8732C22.9872 19.4595 23.1004 19.438 23.206 19.395C23.3116 19.352 23.4075 19.2883 23.4881 19.2077C23.5688 19.127 23.6325 19.0311 23.6755 18.9255C23.7185 18.8199 23.74 18.7068 23.7386 18.5928V16.1275C23.74 16.0134 23.7185 15.9003 23.6755 15.7947C23.6325 15.6891 23.5688 15.5932 23.4881 15.5125C23.4075 15.4319 23.3116 15.3682 23.206 15.3252C23.1004 15.2822 22.9872 15.2607 22.8732 15.2621V15.252ZM22.7827 18.0695C22.7827 18.1843 22.7371 18.2943 22.6559 18.3755C22.5748 18.4566 22.4647 18.5022 22.35 18.5022H20.9211C20.8072 18.4996 20.6986 18.4532 20.618 18.3726C20.5374 18.292 20.491 18.1835 20.4884 18.0695V16.6507C20.4884 16.5359 20.534 16.4259 20.6152 16.3447C20.6963 16.2636 20.8064 16.218 20.9211 16.218H22.35C22.4647 16.218 22.5748 16.2636 22.6559 16.3447C22.7371 16.4259 22.7827 16.5359 22.7827 16.6507V18.0695ZM22.8732 15.252H20.3979C20.2838 15.2507 20.1707 15.2721 20.0651 15.3151C19.9595 15.3582 19.8636 15.4218 19.7829 15.5025C19.7023 15.5831 19.6386 15.679 19.5956 15.7846C19.5526 15.8902 19.5311 16.0034 19.5325 16.1174V18.5928C19.5311 18.7068 19.5526 18.8199 19.5956 18.9255C19.6386 19.0311 19.7023 19.127 19.7829 19.2077C19.8636 19.2883 19.9595 19.352 20.0651 19.395C20.1707 19.438 20.2838 19.4595 20.3979 19.4581H22.8732C22.9872 19.4595 23.1004 19.438 23.206 19.395C23.3116 19.352 23.4075 19.2883 23.4881 19.2077C23.5688 19.127 23.6325 19.0311 23.6755 18.9255C23.7185 18.8199 23.74 18.7068 23.7386 18.5928V16.1275C23.74 16.0134 23.7185 15.9003 23.6755 15.7947C23.6325 15.6891 23.5688 15.5932 23.4881 15.5125C23.4075 15.4319 23.3116 15.3682 23.206 15.3252C23.1004 15.2822 22.9872 15.2607 22.8732 15.2621V15.252ZM22.7827 18.0695C22.7827 18.1843 22.7371 18.2943 22.6559 18.3755C22.5748 18.4566 22.4647 18.5022 22.35 18.5022H20.9211C20.8072 18.4996 20.6986 18.4532 20.618 18.3726C20.5374 18.292 20.491 18.1835 20.4884 18.0695V16.6507C20.4884 16.5359 20.534 16.4259 20.6152 16.3447C20.6963 16.2636 20.8064 16.218 20.9211 16.218H22.35C22.4647 16.218 22.5748 16.2636 22.6559 16.3447C22.7371 16.4259 22.7827 16.5359 22.7827 16.6507V18.0695ZM22.8732 15.252H20.3979C20.2838 15.2507 20.1707 15.2721 20.0651 15.3151C19.9595 15.3582 19.8636 15.4218 19.7829 15.5025C19.7023 15.5831 19.6386 15.679 19.5956 15.7846C19.5526 15.8902 19.5311 16.0034 19.5325 16.1174V18.5928C19.5311 18.7068 19.5526 18.8199 19.5956 18.9255C19.6386 19.0311 19.7023 19.127 19.7829 19.2077C19.8636 19.2883 19.9595 19.352 20.0651 19.395C20.1707 19.438 20.2838 19.4595 20.3979 19.4581H22.8732C22.9872 19.4595 23.1004 19.438 23.206 19.395C23.3116 19.352 23.4075 19.2883 23.4881 19.2077C23.5688 19.127 23.6325 19.0311 23.6755 18.9255C23.7185 18.8199 23.74 18.7068 23.7386 18.5928V16.1275C23.74 16.0134 23.7185 15.9003 23.6755 15.7947C23.6325 15.6891 23.5688 15.5932 23.4881 15.5125C23.4075 15.4319 23.3116 15.3682 23.206 15.3252C23.1004 15.2822 22.9872 15.2607 22.8732 15.2621V15.252ZM22.7827 18.0695C22.7827 18.1843 22.7371 18.2943 22.6559 18.3755C22.5748 18.4566 22.4647 18.5022 22.35 18.5022H20.9211C20.8072 18.4996 20.6986 18.4532 20.618 18.3726C20.5374 18.292 20.491 18.1835 20.4884 18.0695V16.6507C20.4884 16.5359 20.534 16.4259 20.6152 16.3447C20.6963 16.2636 20.8064 16.218 20.9211 16.218H22.35C22.4647 16.218 22.5748 16.2636 22.6559 16.3447C22.7371 16.4259 22.7827 16.5359 22.7827 16.6507V18.0695ZM14.6019 15.252H12.1265C12.0125 15.2507 11.8994 15.2721 11.7938 15.3151C11.6882 15.3582 11.5922 15.4218 11.5116 15.5025C11.431 15.5831 11.3673 15.679 11.3243 15.7846C11.2813 15.8902 11.2598 16.0034 11.2612 16.1174V18.5928C11.2598 18.7068 11.2813 18.8199 11.3243 18.9255C11.3673 19.0311 11.431 19.127 11.5116 19.2077C11.5922 19.2883 11.6882 19.352 11.7938 19.395C11.8994 19.438 12.0125 19.4595 12.1265 19.4581H14.6019C14.7159 19.4595 14.829 19.438 14.9346 19.395C15.0402 19.352 15.1362 19.2883 15.2168 19.2077C15.2974 19.127 15.3611 19.0311 15.4041 18.9255C15.4471 18.8199 15.4686 18.7068 15.4673 18.5928V16.1275C15.4686 16.0134 15.4471 15.9003 15.4041 15.7947C15.3611 15.6891 15.2974 15.5932 15.2168 15.5125C15.1362 15.4319 15.0402 15.3682 14.9346 15.3252C14.829 15.2822 14.7159 15.2607 14.6019 15.2621V15.252ZM14.5113 18.0695C14.5088 18.1835 14.4624 18.292 14.3818 18.3726C14.3012 18.4532 14.1926 18.4996 14.0786 18.5022H12.6498C12.535 18.5022 12.425 18.4566 12.3438 18.3755C12.2627 18.2943 12.2171 18.1843 12.2171 18.0695V16.6507C12.2171 16.5359 12.2627 16.4259 12.3438 16.3447C12.425 16.2636 12.535 16.218 12.6498 16.218H14.0686C14.1833 16.218 14.2934 16.2636 14.3745 16.3447C14.4557 16.4259 14.5013 16.5359 14.5013 16.6507L14.5113 18.0695ZM14.6019 23.5234H12.1265C12.0125 23.522 11.8994 23.5435 11.7938 23.5865C11.6882 23.6295 11.5922 23.6932 11.5116 23.7738C11.431 23.8544 11.3673 23.9504 11.3243 24.056C11.2813 24.1616 11.2598 24.2747 11.2612 24.3887V26.8641C11.2598 26.9781 11.2813 27.0912 11.3243 27.1968C11.3673 27.3024 11.431 27.3984 11.5116 27.479C11.5922 27.5596 11.6882 27.6233 11.7938 27.6663C11.8994 27.7094 12.0125 27.7308 12.1265 27.7295H14.6019C14.7159 27.7308 14.829 27.7094 14.9346 27.6663C15.0402 27.6233 15.1362 27.5596 15.2168 27.479C15.2974 27.3984 15.3611 27.3024 15.4041 27.1968C15.4471 27.0912 15.4686 26.9781 15.4673 26.8641V24.3988C15.4686 24.2848 15.4471 24.1716 15.4041 24.066C15.3611 23.9604 15.2974 23.8645 15.2168 23.7839C15.1362 23.7032 15.0402 23.6396 14.9346 23.5965C14.829 23.5535 14.7159 23.5321 14.6019 23.5334V23.5234ZM14.5113 26.3408C14.5113 26.4556 14.4657 26.5657 14.3846 26.6468C14.3035 26.7279 14.1934 26.7735 14.0786 26.7735H12.6498C12.535 26.7735 12.425 26.7279 12.3438 26.6468C12.2627 26.5657 12.2171 26.4556 12.2171 26.3408V24.922C12.2171 24.8073 12.2627 24.6972 12.3438 24.6161C12.425 24.5349 12.535 24.4894 12.6498 24.4894H14.0686C14.1825 24.4919 14.2911 24.5383 14.3717 24.6189C14.4523 24.6995 14.4987 24.8081 14.5013 24.922L14.5113 26.3408ZM22.8732 15.2721H20.3979C20.2838 15.2708 20.1707 15.2923 20.0651 15.3353C19.9595 15.3783 19.8636 15.442 19.7829 15.5226C19.7023 15.6032 19.6386 15.6992 19.5956 15.8048C19.5526 15.9104 19.5311 16.0235 19.5325 16.1375V18.6129C19.5311 18.7269 19.5526 18.84 19.5956 18.9456C19.6386 19.0512 19.7023 19.1472 19.7829 19.2278C19.8636 19.3084 19.9595 19.3721 20.0651 19.4151C20.1707 19.4581 20.2838 19.4796 20.3979 19.4782H22.8732C22.9872 19.4796 23.1004 19.4581 23.206 19.4151C23.3116 19.3721 23.4075 19.3084 23.4881 19.2278C23.5688 19.1472 23.6325 19.0512 23.6755 18.9456C23.7185 18.84 23.74 18.7269 23.7386 18.6129V16.1275C23.74 16.0134 23.7185 15.9003 23.6755 15.7947C23.6325 15.6891 23.5688 15.5932 23.4881 15.5125C23.4075 15.4319 23.3116 15.3682 23.206 15.3252C23.1004 15.2822 22.9872 15.2607 22.8732 15.2621V15.2721ZM22.7827 18.0695C22.7827 18.1843 22.7371 18.2943 22.6559 18.3755C22.5748 18.4566 22.4647 18.5022 22.35 18.5022H20.9211C20.8072 18.4996 20.6986 18.4532 20.618 18.3726C20.5374 18.292 20.491 18.1835 20.4884 18.0695V16.6507C20.4884 16.5359 20.534 16.4259 20.6152 16.3447C20.6963 16.2636 20.8064 16.218 20.9211 16.218H22.35C22.4647 16.218 22.5748 16.2636 22.6559 16.3447C22.7371 16.4259 22.7827 16.5359 22.7827 16.6507V18.0695ZM22.8732 15.252H20.3979C20.2838 15.2507 20.1707 15.2721 20.0651 15.3151C19.9595 15.3582 19.8636 15.4218 19.7829 15.5025C19.7023 15.5831 19.6386 15.679 19.5956 15.7846C19.5526 15.8902 19.5311 16.0034 19.5325 16.1174V18.5928C19.5311 18.7068 19.5526 18.8199 19.5956 18.9255C19.6386 19.0311 19.7023 19.127 19.7829 19.2077C19.8636 19.2883 19.9595 19.352 20.0651 19.395C20.1707 19.438 20.2838 19.4595 20.3979 19.4581H22.8732C22.9872 19.4595 23.1004 19.438 23.206 19.395C23.3116 19.352 23.4075 19.2883 23.4881 19.2077C23.5688 19.127 23.6325 19.0311 23.6755 18.9255C23.7185 18.8199 23.74 18.7068 23.7386 18.5928V16.1275C23.74 16.0134 23.7185 15.9003 23.6755 15.7947C23.6325 15.6891 23.5688 15.5932 23.4881 15.5125C23.4075 15.4319 23.3116 15.3682 23.206 15.3252C23.1004 15.2822 22.9872 15.2607 22.8732 15.2621V15.252ZM22.7827 18.0695C22.7827 18.1843 22.7371 18.2943 22.6559 18.3755C22.5748 18.4566 22.4647 18.5022 22.35 18.5022H20.9211C20.8072 18.4996 20.6986 18.4532 20.618 18.3726C20.5374 18.292 20.491 18.1835 20.4884 18.0695V16.6507C20.4884 16.5359 20.534 16.4259 20.6152 16.3447C20.6963 16.2636 20.8064 16.218 20.9211 16.218H22.35C22.4647 16.218 22.5748 16.2636 22.6559 16.3447C22.7371 16.4259 22.7827 16.5359 22.7827 16.6507V18.0695ZM14.6019 15.252H12.1265C12.0125 15.2507 11.8994 15.2721 11.7938 15.3151C11.6882 15.3582 11.5922 15.4218 11.5116 15.5025C11.431 15.5831 11.3673 15.679 11.3243 15.7846C11.2813 15.8902 11.2598 16.0034 11.2612 16.1174V18.5928C11.2598 18.7068 11.2813 18.8199 11.3243 18.9255C11.3673 19.0311 11.431 19.127 11.5116 19.2077C11.5922 19.2883 11.6882 19.352 11.7938 19.395C11.8994 19.438 12.0125 19.4595 12.1265 19.4581H14.6019C14.7159 19.4595 14.829 19.438 14.9346 19.395C15.0402 19.352 15.1362 19.2883 15.2168 19.2077C15.2974 19.127 15.3611 19.0311 15.4041 18.9255C15.4471 18.8199 15.4686 18.7068 15.4673 18.5928V16.1275C15.4686 16.0134 15.4471 15.9003 15.4041 15.7947C15.3611 15.6891 15.2974 15.5932 15.2168 15.5125C15.1362 15.4319 15.0402 15.3682 14.9346 15.3252C14.829 15.2822 14.7159 15.2607 14.6019 15.2621V15.252ZM14.5113 18.0695C14.5088 18.1835 14.4624 18.292 14.3818 18.3726C14.3012 18.4532 14.1926 18.4996 14.0786 18.5022H12.6498C12.535 18.5022 12.425 18.4566 12.3438 18.3755C12.2627 18.2943 12.2171 18.1843 12.2171 18.0695V16.6507C12.2171 16.5359 12.2627 16.4259 12.3438 16.3447C12.425 16.2636 12.535 16.218 12.6498 16.218H14.0686C14.1833 16.218 14.2934 16.2636 14.3745 16.3447C14.4557 16.4259 14.5013 16.5359 14.5013 16.6507L14.5113 18.0695ZM22.8732 15.252H20.3979C20.2838 15.2507 20.1707 15.2721 20.0651 15.3151C19.9595 15.3582 19.8636 15.4218 19.7829 15.5025C19.7023 15.5831 19.6386 15.679 19.5956 15.7846C19.5526 15.8902 19.5311 16.0034 19.5325 16.1174V18.5928C19.5311 18.7068 19.5526 18.8199 19.5956 18.9255C19.6386 19.0311 19.7023 19.127 19.7829 19.2077C19.8636 19.2883 19.9595 19.352 20.0651 19.395C20.1707 19.438 20.2838 19.4595 20.3979 19.4581H22.8732C22.9872 19.4595 23.1004 19.438 23.206 19.395C23.3116 19.352 23.4075 19.2883 23.4881 19.2077C23.5688 19.127 23.6325 19.0311 23.6755 18.9255C23.7185 18.8199 23.74 18.7068 23.7386 18.5928V16.1275C23.74 16.0134 23.7185 15.9003 23.6755 15.7947C23.6325 15.6891 23.5688 15.5932 23.4881 15.5125C23.4075 15.4319 23.3116 15.3682 23.206 15.3252C23.1004 15.2822 22.9872 15.2607 22.8732 15.2621V15.252ZM22.7827 18.0695C22.7827 18.1843 22.7371 18.2943 22.6559 18.3755C22.5748 18.4566 22.4647 18.5022 22.35 18.5022H20.9211C20.8072 18.4996 20.6986 18.4532 20.618 18.3726C20.5374 18.292 20.491 18.1835 20.4884 18.0695V16.6507C20.4884 16.5359 20.534 16.4259 20.6152 16.3447C20.6963 16.2636 20.8064 16.218 20.9211 16.218H22.35C22.4647 16.218 22.5748 16.2636 22.6559 16.3447C22.7371 16.4259 22.7827 16.5359 22.7827 16.6507V18.0695ZM22.8732 15.252H20.3979C20.2838 15.2507 20.1707 15.2721 20.0651 15.3151C19.9595 15.3582 19.8636 15.4218 19.7829 15.5025C19.7023 15.5831 19.6386 15.679 19.5956 15.7846C19.5526 15.8902 19.5311 16.0034 19.5325 16.1174V18.5928C19.5311 18.7068 19.5526 18.8199 19.5956 18.9255C19.6386 19.0311 19.7023 19.127 19.7829 19.2077C19.8636 19.2883 19.9595 19.352 20.0651 19.395C20.1707 19.438 20.2838 19.4595 20.3979 19.4581H22.8732C22.9872 19.4595 23.1004 19.438 23.206 19.395C23.3116 19.352 23.4075 19.2883 23.4881 19.2077C23.5688 19.127 23.6325 19.0311 23.6755 18.9255C23.7185 18.8199 23.74 18.7068 23.7386 18.5928V16.1275C23.74 16.0134 23.7185 15.9003 23.6755 15.7947C23.6325 15.6891 23.5688 15.5932 23.4881 15.5125C23.4075 15.4319 23.3116 15.3682 23.206 15.3252C23.1004 15.2822 22.9872 15.2607 22.8732 15.2621V15.252ZM22.7827 18.0695C22.7827 18.1843 22.7371 18.2943 22.6559 18.3755C22.5748 18.4566 22.4647 18.5022 22.35 18.5022H20.9211C20.8072 18.4996 20.6986 18.4532 20.618 18.3726C20.5374 18.292 20.491 18.1835 20.4884 18.0695V16.6507C20.4884 16.5359 20.534 16.4259 20.6152 16.3447C20.6963 16.2636 20.8064 16.218 20.9211 16.218H22.35C22.4647 16.218 22.5748 16.2636 22.6559 16.3447C22.7371 16.4259 22.7827 16.5359 22.7827 16.6507V18.0695Z" fill="url(#paint0_linear_2553_129075)"></path><path d="M17.5 8.76093C20.0196 8.76093 22.4825 9.50806 24.5775 10.9079C26.6724 12.3076 28.3052 14.2972 29.2694 16.625C30.2336 18.9527 30.4858 21.5141 29.9943 23.9853C29.5028 26.4564 28.2895 28.7263 26.5079 30.5079C24.7263 32.2895 22.4564 33.5028 19.9853 33.9943C17.5141 34.4858 14.9527 34.2336 12.625 33.2694C10.2972 32.3052 8.30764 30.6724 6.90786 28.5774C5.50807 26.4825 4.76094 24.0196 4.76094 21.5C4.76094 18.1214 6.10308 14.8812 8.49212 12.4921C10.8812 10.1031 14.1214 8.76093 17.5 8.76093ZM17.5 7C14.6322 7 11.8288 7.85041 9.44424 9.44369C7.05973 11.037 5.20122 13.3016 4.10375 15.9511C3.00628 18.6006 2.71913 21.5161 3.27862 24.3288C3.83811 27.1415 5.2191 29.7252 7.24696 31.753C9.27482 33.7809 11.8585 35.1619 14.6712 35.7214C17.4839 36.2809 20.3994 35.9937 23.0489 34.8963C25.6984 33.7988 27.963 31.9403 29.5563 29.5558C31.1496 27.1713 32 24.3678 32 21.5C31.9973 17.6552 30.4688 13.9686 27.7501 11.2499C25.0314 8.5312 21.3448 7.00267 17.5 7V7Z" fill="url(#paint1_linear_2553_129075)"></path></g><rect x="32" y="4" width="2" height="8" fill="#08CE51"></rect><rect x="29" y="9" width="2" height="8" transform="rotate(-90 29 9)" fill="#08CE51"></rect></g><defs><linearGradient id="paint0_linear_2553_129075" x1="24.8253" y1="38.778" x2="8.60466" y2="0.510519" gradientUnits="userSpaceOnUse"><stop offset="0.08" stop-color="#F7931E"></stop><stop offset="0.79" stop-color="#FCEE21"></stop></linearGradient><linearGradient id="paint1_linear_2553_129075" x1="3.644" y1="25.7866" x2="31.356" y2="17.2134" gradientUnits="userSpaceOnUse"><stop stop-color="#F7931E"></stop><stop offset="1" stop-color="#FCEE21"></stop></linearGradient></defs></svg>