<svg width="40" height="40" viewBox="0 0 40 40" fill="none" xmlns="http://www.w3.org/2000/svg"><rect x="0.25" y="0.25" width="39.5" height="39.5" rx="7.75" fill="white"></rect><path d="M22.2885 10.4116C22.0741 10.1903 21.7976 10.0797 21.4657 10.0797C20.9748 10.0797 20.6222 10.3148 20.394 10.7849C19.917 10.2249 19.2602 9.94141 18.4305 9.94141C17.4349 9.94141 16.5983 10.3286 15.9138 11.096C15.2362 11.8635 14.8975 12.8038 14.8975 13.91C14.8975 15.0162 15.2362 15.9565 15.9138 16.724C16.5914 17.4914 17.4349 17.8786 18.4305 17.8786C19.2602 17.8786 19.917 17.5951 20.394 17.0351C20.6153 17.5053 20.9748 17.7403 21.4657 17.7403C21.7976 17.7403 22.0741 17.6297 22.2885 17.4085C22.5028 17.1872 22.6134 16.9176 22.6134 16.5995V11.2274C22.6065 10.9024 22.5028 10.6328 22.2885 10.4116ZM19.9032 15.2375C19.6266 15.597 19.2394 15.7768 18.7554 15.7768C18.2646 15.7768 17.8843 15.597 17.6077 15.2375C17.3312 14.878 17.1929 14.4355 17.1929 13.9031C17.1929 13.3707 17.3312 12.9282 17.6077 12.5687C17.8843 12.2092 18.2715 12.0294 18.7554 12.0294C19.2463 12.0294 19.6266 12.2092 19.9032 12.5687C20.1797 12.9282 20.318 13.3707 20.318 13.9031C20.3249 14.4355 20.1866 14.878 19.9032 15.2375Z" fill="#118ACB"></path><path d="M25.1992 17.401C24.9849 17.6223 24.7083 17.7329 24.3765 17.7329C24.0446 17.7329 23.768 17.6223 23.5537 17.401C23.3394 17.1798 23.2288 16.9101 23.2288 16.5921V6.97478C23.2288 6.65674 23.3394 6.3871 23.5537 6.16585C23.768 5.94461 24.0446 5.83398 24.3765 5.83398C24.7083 5.83398 24.9849 5.94461 25.1992 6.16585C25.4136 6.3871 25.5242 6.65674 25.5242 6.97478V16.5921C25.5242 16.9101 25.4136 17.1798 25.1992 17.401Z" fill="#118ACB"></path><path d="M32.777 11.096C32.0441 10.3286 31.1108 9.94141 29.9769 9.94141C28.843 9.94141 27.9165 10.3217 27.1975 11.0822C26.4784 11.8427 26.1189 12.783 26.1189 13.91C26.1189 15.037 26.4784 15.9773 27.1975 16.7378C27.9165 17.4983 28.843 17.8786 29.9769 17.8786C31.1108 17.8786 32.0441 17.4914 32.777 16.724C33.4822 15.9704 33.8349 15.037 33.8349 13.91C33.8279 12.783 33.4753 11.8427 32.777 11.096ZM31.1246 15.2375C30.848 15.597 30.4609 15.7768 29.9769 15.7768C29.486 15.7768 29.1057 15.597 28.8292 15.2375C28.5526 14.878 28.4143 14.4355 28.4143 13.9031C28.4143 13.3707 28.5526 12.9282 28.8292 12.5687C29.1057 12.2092 29.4929 12.0294 29.9769 12.0294C30.4678 12.0294 30.848 12.2092 31.1246 12.5687C31.4011 12.9282 31.5394 13.3707 31.5394 13.9031C31.5394 14.4355 31.4011 14.878 31.1246 15.2375Z" fill="#118ACB"></path><path d="M13.6323 10.2039C14.4412 9.15992 14.8422 8.46161 14.8422 8.09517C14.8422 7.25859 14.3167 6.84375 13.2658 6.84375H7.71393C7.27835 6.84375 6.93957 6.94746 6.70449 7.15488C6.4625 7.3623 6.34497 7.63194 6.34497 7.9569C6.34497 8.28876 6.4625 8.55149 6.70449 8.75891C6.94648 8.96633 7.27835 9.07004 7.71393 9.07004H11.5235L6.64918 15.3756C6.33114 15.7904 6.17212 16.1568 6.17212 16.4749C6.17212 17.3944 6.78055 17.8507 7.99048 17.8507H13.7152C14.6279 17.8507 15.0842 17.4636 15.0842 16.6961C15.0842 15.9287 14.6279 15.5415 13.7152 15.5415H9.50464L13.6323 10.2039Z" fill="#118ACB"></path><path d="M10.9013 23.7891H9.47705V26.7482H10.9013C11.33 26.7482 11.6757 26.61 11.9453 26.3265C12.2081 26.0499 12.3463 25.6904 12.3463 25.2617C12.3463 24.8331 12.215 24.4805 11.9453 24.197C11.6757 23.9273 11.33 23.7891 10.9013 23.7891Z" fill="#33B44A"></path><path d="M18.0159 26.5762C17.5665 26.5762 17.207 26.7421 16.9511 27.074C16.6953 27.4058 16.564 27.8207 16.564 28.3047C16.564 28.7955 16.6953 29.2035 16.9511 29.5353C17.207 29.8672 17.5665 30.0331 18.0159 30.0331C18.4653 30.0331 18.8248 29.8672 19.0806 29.5353C19.3365 29.2035 19.4678 28.7886 19.4678 28.3047C19.4678 27.8138 19.3365 27.4058 19.0806 27.074C18.8179 26.7421 18.4653 26.5762 18.0159 26.5762Z" fill="#33B44A"></path><path d="M28.0825 19.5586H7.41671C6.72531 19.5586 6.16528 20.1186 6.16528 20.81V32.9163C6.16528 33.6077 6.72531 34.1678 7.41671 34.1678H23.7267C23.5538 34.0018 23.4709 33.8151 23.4709 33.5939C23.4709 33.4141 23.5124 33.2275 23.5884 33.0339L24.3559 31.3261L22.2333 26.0024C22.1711 25.8503 22.1365 25.6843 22.1365 25.5046C22.1365 25.2695 22.2333 25.0759 22.4338 24.9169C22.6274 24.7579 22.8348 24.6749 23.0491 24.6749C23.5193 24.6749 23.8442 24.9031 24.0102 25.3594L25.3376 28.9823L26.755 25.3594C26.9348 24.9031 27.2528 24.6749 27.716 24.6749C27.9304 24.6749 28.1378 24.7579 28.3314 24.9169C28.525 25.0759 28.6287 25.2764 28.6287 25.5046C28.6287 25.6843 28.5941 25.8503 28.5319 26.0024L25.386 33.6561C25.3031 33.8705 25.1925 34.0364 25.0749 34.1608H28.0825C28.7739 34.1608 29.3339 33.6008 29.3339 32.9094V20.8031C29.3339 20.1117 28.7739 19.5586 28.0825 19.5586ZM13.4871 27.7032C12.8372 28.2978 12.0145 28.5951 11.0258 28.5951H9.47706V30.8836C9.47706 31.2293 9.38027 31.499 9.18668 31.6856C8.99309 31.8792 8.73727 31.9691 8.43306 31.9691C8.12884 31.9691 7.87303 31.8723 7.67944 31.6856C7.48585 31.4921 7.38905 31.2293 7.38905 30.8836V23.0363C7.38905 22.3103 7.75549 21.9439 8.48145 21.9439H10.9566C11.9937 21.9439 12.8442 22.255 13.5217 22.8704C14.1993 23.4926 14.5381 24.2946 14.5381 25.2833C14.5242 26.2789 14.1785 27.0879 13.4871 27.7032ZM21.5834 30.7937C21.5834 31.091 21.4866 31.34 21.2861 31.5405C21.0856 31.7479 20.8367 31.8447 20.5255 31.8447C20.0761 31.8447 19.7443 31.6303 19.5368 31.1948C19.0944 31.7133 18.4859 31.976 17.7185 31.976C16.7989 31.976 16.0177 31.6234 15.3885 30.9113C14.7593 30.1992 14.4482 29.328 14.4482 28.3047C14.4482 27.2815 14.7593 26.4103 15.3885 25.6982C16.0177 24.986 16.792 24.6334 17.7185 24.6334C18.4859 24.6334 19.0944 24.8962 19.5368 25.4147C19.7443 24.9791 20.0761 24.7648 20.5255 24.7648C20.8298 24.7648 21.0856 24.8685 21.2861 25.069C21.4866 25.2764 21.5834 25.5253 21.5834 25.8157V30.7937Z" fill="#39B54A"></path></svg>